<?xml version="1.0" encoding="utf-8" standalone="no"?>
<!DOCTYPE svg PUBLIC "-//W3C//DTD SVG 1.1//EN"
  "http://www.w3.org/Graphics/SVG/1.1/DTD/svg11.dtd">
<svg xmlns:xlink="http://www.w3.org/1999/xlink" width="330.360465pt" height="208.323602pt" viewBox="0 0 330.360465 208.323602" xmlns="http://www.w3.org/2000/svg" version="1.1">
 <metadata>
  <rdf:RDF xmlns:dc="http://purl.org/dc/elements/1.1/" xmlns:cc="http://creativecommons.org/ns#" xmlns:rdf="http://www.w3.org/1999/02/22-rdf-syntax-ns#">
   <cc:Work>
    <dc:type rdf:resource="http://purl.org/dc/dcmitype/StillImage"/>
    <dc:date>2025-11-30T07:59:56.740996</dc:date>
    <dc:format>image/svg+xml</dc:format>
    <dc:creator>
     <cc:Agent>
      <dc:title>Matplotlib v3.10.6, https://matplotlib.org/</dc:title>
     </cc:Agent>
    </dc:creator>
   </cc:Work>
  </rdf:RDF>
 </metadata>
 <defs>
  <style type="text/css">*{stroke-linejoin: round; stroke-linecap: butt}</style>
 </defs>
 <g id="figure_1">
  <g id="patch_1">
   <path d="M 0 208.323602 
L 330.360465 208.323602 
L 330.360465 0 
L 0 0 
L 0 208.323602 
z
" style="fill: none"/>
  </g>
  <g id="axes_1">
   <g id="patch_2">
    <path d="M 56.784375 170.767352 
L 323.160465 170.767352 
L 323.160465 7.2 
L 56.784375 7.2 
L 56.784375 170.767352 
z
" style="fill: none"/>
   </g>
   <g id="matplotlib.axis_1">
    <g id="xtick_1">
     <g id="text_1">
      <!-- 50 -->
      <g style="fill: #262626" transform="translate(85.545093 185.365789) scale(0.1 -0.1)">
       <defs>
        <path id="DejaVuSans-35" d="M 691 4666 
L 3169 4666 
L 3169 4134 
L 1269 4134 
L 1269 2991 
Q 1406 3038 1543 3061 
Q 1681 3084 1819 3084 
Q 2600 3084 3056 2656 
Q 3513 2228 3513 1497 
Q 3513 744 3044 326 
Q 2575 -91 1722 -91 
Q 1428 -91 1123 -41 
Q 819 9 494 109 
L 494 744 
Q 775 591 1075 516 
Q 1375 441 1709 441 
Q 2250 441 2565 725 
Q 2881 1009 2881 1497 
Q 2881 1984 2565 2268 
Q 2250 2553 1709 2553 
Q 1456 2553 1204 2497 
Q 953 2441 691 2322 
L 691 4666 
z
" transform="scale(0.015625)"/>
        <path id="DejaVuSans-30" d="M 2034 4250 
Q 1547 4250 1301 3770 
Q 1056 3291 1056 2328 
Q 1056 1369 1301 889 
Q 1547 409 2034 409 
Q 2525 409 2770 889 
Q 3016 1369 3016 2328 
Q 3016 3291 2770 3770 
Q 2525 4250 2034 4250 
z
M 2034 4750 
Q 2819 4750 3233 4129 
Q 3647 3509 3647 2328 
Q 3647 1150 3233 529 
Q 2819 -91 2034 -91 
Q 1250 -91 836 529 
Q 422 1150 422 2328 
Q 422 3509 836 4129 
Q 1250 4750 2034 4750 
z
" transform="scale(0.015625)"/>
       </defs>
       <use xlink:href="#DejaVuSans-35"/>
       <use xlink:href="#DejaVuSans-30" transform="translate(63.623047 0)"/>
      </g>
     </g>
    </g>
    <g id="xtick_2">
     <g id="text_2">
      <!-- 100 -->
      <g style="fill: #262626" transform="translate(132.396918 185.365789) scale(0.1 -0.1)">
       <defs>
        <path id="DejaVuSans-31" d="M 794 531 
L 1825 531 
L 1825 4091 
L 703 3866 
L 703 4441 
L 1819 4666 
L 2450 4666 
L 2450 531 
L 3481 531 
L 3481 0 
L 794 0 
L 794 531 
z
" transform="scale(0.015625)"/>
       </defs>
       <use xlink:href="#DejaVuSans-31"/>
       <use xlink:href="#DejaVuSans-30" transform="translate(63.623047 0)"/>
       <use xlink:href="#DejaVuSans-30" transform="translate(127.246094 0)"/>
      </g>
     </g>
    </g>
    <g id="xtick_3">
     <g id="text_3">
      <!-- 150 -->
      <g style="fill: #262626" transform="translate(182.429993 185.365789) scale(0.1 -0.1)">
       <use xlink:href="#DejaVuSans-31"/>
       <use xlink:href="#DejaVuSans-35" transform="translate(63.623047 0)"/>
       <use xlink:href="#DejaVuSans-30" transform="translate(127.246094 0)"/>
      </g>
     </g>
    </g>
    <g id="xtick_4">
     <g id="text_4">
      <!-- 200 -->
      <g style="fill: #262626" transform="translate(232.463068 185.365789) scale(0.1 -0.1)">
       <defs>
        <path id="DejaVuSans-32" d="M 1228 531 
L 3431 531 
L 3431 0 
L 469 0 
L 469 531 
Q 828 903 1448 1529 
Q 2069 2156 2228 2338 
Q 2531 2678 2651 2914 
Q 2772 3150 2772 3378 
Q 2772 3750 2511 3984 
Q 2250 4219 1831 4219 
Q 1534 4219 1204 4116 
Q 875 4013 500 3803 
L 500 4441 
Q 881 4594 1212 4672 
Q 1544 4750 1819 4750 
Q 2544 4750 2975 4387 
Q 3406 4025 3406 3419 
Q 3406 3131 3298 2873 
Q 3191 2616 2906 2266 
Q 2828 2175 2409 1742 
Q 1991 1309 1228 531 
z
" transform="scale(0.015625)"/>
       </defs>
       <use xlink:href="#DejaVuSans-32"/>
       <use xlink:href="#DejaVuSans-30" transform="translate(63.623047 0)"/>
       <use xlink:href="#DejaVuSans-30" transform="translate(127.246094 0)"/>
      </g>
     </g>
    </g>
    <g id="xtick_5">
     <g id="text_5">
      <!-- 250 -->
      <g style="fill: #262626" transform="translate(282.496142 185.365789) scale(0.1 -0.1)">
       <use xlink:href="#DejaVuSans-32"/>
       <use xlink:href="#DejaVuSans-35" transform="translate(63.623047 0)"/>
       <use xlink:href="#DejaVuSans-30" transform="translate(127.246094 0)"/>
      </g>
     </g>
    </g>
    <g id="text_6">
     <!-- draw -->
     <g style="fill: #262626" transform="translate(177.589607 199.043914) scale(0.1 -0.1)">
      <defs>
       <path id="DejaVuSans-64" d="M 2906 2969 
L 2906 4863 
L 3481 4863 
L 3481 0 
L 2906 0 
L 2906 525 
Q 2725 213 2448 61 
Q 2172 -91 1784 -91 
Q 1150 -91 751 415 
Q 353 922 353 1747 
Q 353 2572 751 3078 
Q 1150 3584 1784 3584 
Q 2172 3584 2448 3432 
Q 2725 3281 2906 2969 
z
M 947 1747 
Q 947 1113 1208 752 
Q 1469 391 1925 391 
Q 2381 391 2643 752 
Q 2906 1113 2906 1747 
Q 2906 2381 2643 2742 
Q 2381 3103 1925 3103 
Q 1469 3103 1208 2742 
Q 947 2381 947 1747 
z
" transform="scale(0.015625)"/>
       <path id="DejaVuSans-72" d="M 2631 2963 
Q 2534 3019 2420 3045 
Q 2306 3072 2169 3072 
Q 1681 3072 1420 2755 
Q 1159 2438 1159 1844 
L 1159 0 
L 581 0 
L 581 3500 
L 1159 3500 
L 1159 2956 
Q 1341 3275 1631 3429 
Q 1922 3584 2338 3584 
Q 2397 3584 2469 3576 
Q 2541 3569 2628 3553 
L 2631 2963 
z
" transform="scale(0.015625)"/>
       <path id="DejaVuSans-61" d="M 2194 1759 
Q 1497 1759 1228 1600 
Q 959 1441 959 1056 
Q 959 750 1161 570 
Q 1363 391 1709 391 
Q 2188 391 2477 730 
Q 2766 1069 2766 1631 
L 2766 1759 
L 2194 1759 
z
M 3341 1997 
L 3341 0 
L 2766 0 
L 2766 531 
Q 2569 213 2275 61 
Q 1981 -91 1556 -91 
Q 1019 -91 701 211 
Q 384 513 384 1019 
Q 384 1609 779 1909 
Q 1175 2209 1959 2209 
L 2766 2209 
L 2766 2266 
Q 2766 2663 2505 2880 
Q 2244 3097 1772 3097 
Q 1472 3097 1187 3025 
Q 903 2953 641 2809 
L 641 3341 
Q 956 3463 1253 3523 
Q 1550 3584 1831 3584 
Q 2591 3584 2966 3190 
Q 3341 2797 3341 1997 
z
" transform="scale(0.015625)"/>
       <path id="DejaVuSans-77" d="M 269 3500 
L 844 3500 
L 1563 769 
L 2278 3500 
L 2956 3500 
L 3675 769 
L 4391 3500 
L 4966 3500 
L 4050 0 
L 3372 0 
L 2619 2869 
L 1863 0 
L 1184 0 
L 269 3500 
z
" transform="scale(0.015625)"/>
      </defs>
      <use xlink:href="#DejaVuSans-64"/>
      <use xlink:href="#DejaVuSans-72" transform="translate(63.476562 0)"/>
      <use xlink:href="#DejaVuSans-61" transform="translate(104.589844 0)"/>
      <use xlink:href="#DejaVuSans-77" transform="translate(165.869141 0)"/>
     </g>
    </g>
   </g>
   <g id="matplotlib.axis_2">
    <g id="ytick_1">
     <g id="text_7">
      <!-- 0.072 -->
      <g style="fill: #262626" transform="translate(21.15625 165.002467) scale(0.1 -0.1)">
       <defs>
        <path id="DejaVuSans-2e" d="M 684 794 
L 1344 794 
L 1344 0 
L 684 0 
L 684 794 
z
" transform="scale(0.015625)"/>
        <path id="DejaVuSans-37" d="M 525 4666 
L 3525 4666 
L 3525 4397 
L 1831 0 
L 1172 0 
L 2766 4134 
L 525 4134 
L 525 4666 
z
" transform="scale(0.015625)"/>
       </defs>
       <use xlink:href="#DejaVuSans-30"/>
       <use xlink:href="#DejaVuSans-2e" transform="translate(63.623047 0)"/>
       <use xlink:href="#DejaVuSans-30" transform="translate(95.410156 0)"/>
       <use xlink:href="#DejaVuSans-37" transform="translate(159.033203 0)"/>
       <use xlink:href="#DejaVuSans-32" transform="translate(222.65625 0)"/>
      </g>
     </g>
    </g>
    <g id="ytick_2">
     <g id="text_8">
      <!-- 0.073 -->
      <g style="fill: #262626" transform="translate(21.15625 128.527341) scale(0.1 -0.1)">
       <defs>
        <path id="DejaVuSans-33" d="M 2597 2516 
Q 3050 2419 3304 2112 
Q 3559 1806 3559 1356 
Q 3559 666 3084 287 
Q 2609 -91 1734 -91 
Q 1441 -91 1130 -33 
Q 819 25 488 141 
L 488 750 
Q 750 597 1062 519 
Q 1375 441 1716 441 
Q 2309 441 2620 675 
Q 2931 909 2931 1356 
Q 2931 1769 2642 2001 
Q 2353 2234 1838 2234 
L 1294 2234 
L 1294 2753 
L 1863 2753 
Q 2328 2753 2575 2939 
Q 2822 3125 2822 3475 
Q 2822 3834 2567 4026 
Q 2313 4219 1838 4219 
Q 1578 4219 1281 4162 
Q 984 4106 628 3988 
L 628 4550 
Q 988 4650 1302 4700 
Q 1616 4750 1894 4750 
Q 2613 4750 3031 4423 
Q 3450 4097 3450 3541 
Q 3450 3153 3228 2886 
Q 3006 2619 2597 2516 
z
" transform="scale(0.015625)"/>
       </defs>
       <use xlink:href="#DejaVuSans-30"/>
       <use xlink:href="#DejaVuSans-2e" transform="translate(63.623047 0)"/>
       <use xlink:href="#DejaVuSans-30" transform="translate(95.410156 0)"/>
       <use xlink:href="#DejaVuSans-37" transform="translate(159.033203 0)"/>
       <use xlink:href="#DejaVuSans-33" transform="translate(222.65625 0)"/>
      </g>
     </g>
    </g>
    <g id="ytick_3">
     <g id="text_9">
      <!-- 0.074 -->
      <g style="fill: #262626" transform="translate(21.15625 92.052215) scale(0.1 -0.1)">
       <defs>
        <path id="DejaVuSans-34" d="M 2419 4116 
L 825 1625 
L 2419 1625 
L 2419 4116 
z
M 2253 4666 
L 3047 4666 
L 3047 1625 
L 3713 1625 
L 3713 1100 
L 3047 1100 
L 3047 0 
L 2419 0 
L 2419 1100 
L 313 1100 
L 313 1709 
L 2253 4666 
z
" transform="scale(0.015625)"/>
       </defs>
       <use xlink:href="#DejaVuSans-30"/>
       <use xlink:href="#DejaVuSans-2e" transform="translate(63.623047 0)"/>
       <use xlink:href="#DejaVuSans-30" transform="translate(95.410156 0)"/>
       <use xlink:href="#DejaVuSans-37" transform="translate(159.033203 0)"/>
       <use xlink:href="#DejaVuSans-34" transform="translate(222.65625 0)"/>
      </g>
     </g>
    </g>
    <g id="ytick_4">
     <g id="text_10">
      <!-- 0.075 -->
      <g style="fill: #262626" transform="translate(21.15625 55.577089) scale(0.1 -0.1)">
       <use xlink:href="#DejaVuSans-30"/>
       <use xlink:href="#DejaVuSans-2e" transform="translate(63.623047 0)"/>
       <use xlink:href="#DejaVuSans-30" transform="translate(95.410156 0)"/>
       <use xlink:href="#DejaVuSans-37" transform="translate(159.033203 0)"/>
       <use xlink:href="#DejaVuSans-35" transform="translate(222.65625 0)"/>
      </g>
     </g>
    </g>
    <g id="ytick_5">
     <g id="text_11">
      <!-- 0.076 -->
      <g style="fill: #262626" transform="translate(21.15625 19.101963) scale(0.1 -0.1)">
       <defs>
        <path id="DejaVuSans-36" d="M 2113 2584 
Q 1688 2584 1439 2293 
Q 1191 2003 1191 1497 
Q 1191 994 1439 701 
Q 1688 409 2113 409 
Q 2538 409 2786 701 
Q 3034 994 3034 1497 
Q 3034 2003 2786 2293 
Q 2538 2584 2113 2584 
z
M 3366 4563 
L 3366 3988 
Q 3128 4100 2886 4159 
Q 2644 4219 2406 4219 
Q 1781 4219 1451 3797 
Q 1122 3375 1075 2522 
Q 1259 2794 1537 2939 
Q 1816 3084 2150 3084 
Q 2853 3084 3261 2657 
Q 3669 2231 3669 1497 
Q 3669 778 3244 343 
Q 2819 -91 2113 -91 
Q 1303 -91 875 529 
Q 447 1150 447 2328 
Q 447 3434 972 4092 
Q 1497 4750 2381 4750 
Q 2619 4750 2861 4703 
Q 3103 4656 3366 4563 
z
" transform="scale(0.015625)"/>
       </defs>
       <use xlink:href="#DejaVuSans-30"/>
       <use xlink:href="#DejaVuSans-2e" transform="translate(63.623047 0)"/>
       <use xlink:href="#DejaVuSans-30" transform="translate(95.410156 0)"/>
       <use xlink:href="#DejaVuSans-37" transform="translate(159.033203 0)"/>
       <use xlink:href="#DejaVuSans-36" transform="translate(222.65625 0)"/>
      </g>
     </g>
    </g>
    <g id="text_12">
     <!-- train_dtb -->
     <g style="fill: #262626" transform="translate(14.798438 111.42977) rotate(-90) scale(0.1 -0.1)">
      <defs>
       <path id="DejaVuSans-74" d="M 1172 4494 
L 1172 3500 
L 2356 3500 
L 2356 3053 
L 1172 3053 
L 1172 1153 
Q 1172 725 1289 603 
Q 1406 481 1766 481 
L 2356 481 
L 2356 0 
L 1766 0 
Q 1100 0 847 248 
Q 594 497 594 1153 
L 594 3053 
L 172 3053 
L 172 3500 
L 594 3500 
L 594 4494 
L 1172 4494 
z
" transform="scale(0.015625)"/>
       <path id="DejaVuSans-69" d="M 603 3500 
L 1178 3500 
L 1178 0 
L 603 0 
L 603 3500 
z
M 603 4863 
L 1178 4863 
L 1178 4134 
L 603 4134 
L 603 4863 
z
" transform="scale(0.015625)"/>
       <path id="DejaVuSans-6e" d="M 3513 2113 
L 3513 0 
L 2938 0 
L 2938 2094 
Q 2938 2591 2744 2837 
Q 2550 3084 2163 3084 
Q 1697 3084 1428 2787 
Q 1159 2491 1159 1978 
L 1159 0 
L 581 0 
L 581 3500 
L 1159 3500 
L 1159 2956 
Q 1366 3272 1645 3428 
Q 1925 3584 2291 3584 
Q 2894 3584 3203 3211 
Q 3513 2838 3513 2113 
z
" transform="scale(0.015625)"/>
       <path id="DejaVuSans-5f" d="M 3263 -1063 
L 3263 -1509 
L -63 -1509 
L -63 -1063 
L 3263 -1063 
z
" transform="scale(0.015625)"/>
       <path id="DejaVuSans-62" d="M 3116 1747 
Q 3116 2381 2855 2742 
Q 2594 3103 2138 3103 
Q 1681 3103 1420 2742 
Q 1159 2381 1159 1747 
Q 1159 1113 1420 752 
Q 1681 391 2138 391 
Q 2594 391 2855 752 
Q 3116 1113 3116 1747 
z
M 1159 2969 
Q 1341 3281 1617 3432 
Q 1894 3584 2278 3584 
Q 2916 3584 3314 3078 
Q 3713 2572 3713 1747 
Q 3713 922 3314 415 
Q 2916 -91 2278 -91 
Q 1894 -91 1617 61 
Q 1341 213 1159 525 
L 1159 0 
L 581 0 
L 581 4863 
L 1159 4863 
L 1159 2969 
z
" transform="scale(0.015625)"/>
      </defs>
      <use xlink:href="#DejaVuSans-74"/>
      <use xlink:href="#DejaVuSans-72" transform="translate(39.208984 0)"/>
      <use xlink:href="#DejaVuSans-61" transform="translate(80.322266 0)"/>
      <use xlink:href="#DejaVuSans-69" transform="translate(141.601562 0)"/>
      <use xlink:href="#DejaVuSans-6e" transform="translate(169.384766 0)"/>
      <use xlink:href="#DejaVuSans-5f" transform="translate(232.763672 0)"/>
      <use xlink:href="#DejaVuSans-64" transform="translate(282.763672 0)"/>
      <use xlink:href="#DejaVuSans-74" transform="translate(346.240234 0)"/>
      <use xlink:href="#DejaVuSans-62" transform="translate(385.449219 0)"/>
     </g>
    </g>
   </g>
   <g id="line2d_1">
    <path d="M 68.892379 122.96637 
L 69.893041 121.685867 
L 70.893702 133.378752 
L 71.894364 132.36685 
L 72.895025 150.364587 
L 73.895687 130.795461 
L 74.896348 130.697899 
L 75.89701 134.120964 
L 76.897671 118.222954 
L 77.898333 138.210524 
L 78.898994 155.619933 
L 79.899656 137.804581 
L 80.900317 116.952336 
L 81.900978 146.457379 
L 82.90164 94.540523 
L 83.902301 140.659361 
L 84.902963 148.441267 
L 85.903624 130.041562 
L 86.904286 138.737502 
L 87.904947 141.306899 
L 89.90627 112.492944 
L 90.906932 144.527096 
L 91.907593 147.42281 
L 92.908255 149.744497 
L 93.908916 148.711024 
L 94.909578 129.688545 
L 95.910239 130.733771 
L 97.911562 163.332472 
L 98.912224 127.302247 
L 99.912885 151.351656 
L 100.913547 124.557835 
L 102.91487 137.519878 
L 103.915531 109.697034 
L 104.916193 143.947532 
L 105.916854 116.896455 
L 106.917516 107.018321 
L 107.918177 142.056789 
L 108.918839 134.977928 
L 109.9195 141.505726 
L 110.920162 124.933511 
L 111.920823 153.858548 
L 112.921485 91.760987 
L 113.922146 109.574946 
L 114.922808 125.353755 
L 115.923469 17.080048 
L 116.924131 77.332455 
L 117.924792 59.227271 
L 118.925454 14.63488 
L 119.926115 23.224459 
L 120.926777 30.738545 
L 121.927438 108.591919 
L 122.9281 137.934687 
L 123.928761 135.418996 
L 124.929423 114.089573 
L 125.930084 121.592687 
L 126.930746 143.958844 
L 127.931407 137.577627 
L 128.932069 120.835153 
L 129.93273 109.988226 
L 130.933392 125.952342 
L 131.934053 121.736652 
L 132.934715 124.68648 
L 133.935376 151.4251 
L 134.936038 128.899589 
L 135.936699 134.697267 
L 136.937361 113.192762 
L 137.938022 102.442344 
L 138.938684 22.959153 
L 140.940007 128.109546 
L 141.940668 138.334073 
L 142.94133 116.385952 
L 143.941991 122.75477 
L 144.942653 143.183442 
L 145.943314 131.410931 
L 146.943976 124.823482 
L 147.944637 121.907691 
L 148.945299 135.086089 
L 149.94596 132.518493 
L 150.946622 133.991946 
L 151.947283 141.237804 
L 152.947945 143.32153 
L 153.948606 136.203944 
L 154.949268 114.325631 
L 155.949929 133.238421 
L 157.951252 134.018273 
L 158.951914 35.233436 
L 159.952575 150.055799 
L 160.953237 131.244987 
L 161.953898 122.854914 
L 162.954559 149.206546 
L 163.955221 93.112759 
L 164.955882 119.983658 
L 165.956544 135.247209 
L 166.957205 119.782318 
L 167.957867 124.881231 
L 168.958528 124.794267 
L 169.95919 112.520697 
L 170.959851 112.387671 
L 171.960513 135.420423 
L 172.961174 109.465324 
L 173.961836 119.125981 
L 174.962497 141.788901 
L 175.963159 134.406008 
L 176.96382 128.364933 
L 177.964482 135.752243 
L 178.965143 114.41144 
L 179.965805 120.328625 
L 180.966466 124.7391 
L 181.967128 123.206063 
L 182.967789 139.233058 
L 183.968451 99.06755 
L 184.969112 121.558513 
L 185.969774 126.511151 
L 186.970435 117.905809 
L 187.971097 131.574599 
L 188.971758 89.568862 
L 189.97242 139.685404 
L 190.973081 119.658497 
L 191.973743 123.23205 
L 192.974404 107.159127 
L 193.975066 127.558789 
L 194.975727 124.96208 
L 195.976389 131.909341 
L 196.97705 116.375761 
L 197.977712 133.817951 
L 198.978373 114.035459 
L 199.979035 113.875052 
L 200.979696 113.59293 
L 201.980358 127.439316 
L 202.981019 90.267219 
L 203.981681 110.705267 
L 204.982342 98.757368 
L 205.983004 128.066744 
L 206.983665 132.464786 
L 207.984327 104.727547 
L 208.984988 110.547782 
L 209.98565 134.940969 
L 210.986311 115.08612 
L 211.986973 132.105892 
L 212.987634 137.749719 
L 213.988296 118.394435 
L 214.988957 124.73251 
L 215.989619 125.127582 
L 216.99028 138.223331 
L 217.990942 131.945111 
L 218.991603 114.890996 
L 219.992265 121.855853 
L 220.992926 121.173224 
L 221.993588 118.689703 
L 222.994249 132.612046 
L 223.994911 149.764505 
L 224.995572 121.811998 
L 225.996234 62.3443 
L 227.997557 147.753882 
L 228.998218 138.81458 
L 229.99888 132.584293 
L 230.999541 131.914436 
L 233.000864 113.591164 
L 234.001526 145.372714 
L 235.002187 126.980346 
L 236.002849 126.499805 
L 237.00351 126.451159 
L 238.004172 125.291318 
L 239.004833 112.610311 
L 240.005495 86.135197 
L 242.006818 116.649085 
L 243.007479 130.340873 
L 244.00814 110.301125 
L 245.008802 98.123384 
L 246.009463 105.352393 
L 247.010125 135.065605 
L 248.010786 122.920714 
L 249.011448 113.625847 
L 250.012109 119.765876 
L 251.012771 113.459563 
L 252.013432 127.717429 
L 253.014094 115.133644 
L 254.014755 108.466603 
L 255.015417 126.069641 
L 256.016078 112.329616 
L 257.01674 88.172894 
L 258.017401 115.562347 
L 259.018063 121.513808 
L 260.018724 129.492707 
L 261.019386 124.495398 
L 262.020047 110.143639 
L 263.020709 115.167275 
L 264.02137 127.037721 
L 265.022032 117.534176 
L 266.022693 110.562423 
L 267.023355 129.674345 
L 268.024016 126.820618 
L 269.024678 106.852853 
L 270.025339 122.681361 
L 271.026001 128.111347 
L 272.026662 117.359875 
L 273.027324 122.737649 
L 274.027985 117.167638 
L 275.028647 88.236826 
L 276.029308 112.101982 
L 277.02997 112.145837 
L 278.030631 99.824811 
L 279.031293 118.787639 
L 280.031954 97.012426 
L 282.033277 128.886816 
L 283.033939 110.349362 
L 284.0346 120.746355 
L 285.035262 93.537488 
L 286.035923 129.933435 
L 287.036585 85.310811 
L 288.037246 103.681607 
L 289.037908 139.305788 
L 290.038569 114.426149 
L 291.039231 17.942379 
L 292.039892 35.851284 
L 293.040554 102.915242 
L 294.041215 111.173069 
L 295.041877 133.568441 
L 296.042538 118.349492 
L 297.0432 118.091082 
L 298.043861 115.473855 
L 299.044523 101.11041 
L 300.045184 111.432873 
L 301.045846 122.959814 
L 303.047169 108.87703 
L 304.04783 101.228796 
L 305.048492 109.398165 
L 306.049153 114.114813 
L 307.049815 35.737654 
L 308.050476 116.330071 
L 309.051138 116.901958 
L 310.051799 127.013569 
L 311.052461 79.718923 
L 311.052461 79.718923 
" clip-path="url(#pa6227a4bcc)" style="fill: none; stroke: #9f4800; stroke-width: 1.5; stroke-linecap: round"/>
   </g>
  </g>
 </g>
 <defs>
  <clipPath id="pa6227a4bcc">
   <rect x="56.784375" y="7.2" width="266.37609" height="163.567352"/>
  </clipPath>
 </defs>
</svg>
