<?xml version="1.0" encoding="utf-8" standalone="no"?>
<!DOCTYPE svg PUBLIC "-//W3C//DTD SVG 1.1//EN"
  "http://www.w3.org/Graphics/SVG/1.1/DTD/svg11.dtd">
<svg xmlns:xlink="http://www.w3.org/1999/xlink" width="314.45734pt" height="208.323602pt" viewBox="0 0 314.45734 208.323602" xmlns="http://www.w3.org/2000/svg" version="1.1">
 <metadata>
  <rdf:RDF xmlns:dc="http://purl.org/dc/elements/1.1/" xmlns:cc="http://creativecommons.org/ns#" xmlns:rdf="http://www.w3.org/1999/02/22-rdf-syntax-ns#">
   <cc:Work>
    <dc:type rdf:resource="http://purl.org/dc/dcmitype/StillImage"/>
    <dc:date>2025-11-30T08:01:31.369139</dc:date>
    <dc:format>image/svg+xml</dc:format>
    <dc:creator>
     <cc:Agent>
      <dc:title>Matplotlib v3.10.6, https://matplotlib.org/</dc:title>
     </cc:Agent>
    </dc:creator>
   </cc:Work>
  </rdf:RDF>
 </metadata>
 <defs>
  <style type="text/css">*{stroke-linejoin: round; stroke-linecap: butt}</style>
 </defs>
 <g id="figure_1">
  <g id="patch_1">
   <path d="M 0 208.323602 
L 314.45734 208.323602 
L 314.45734 0 
L 0 0 
L 0 208.323602 
z
" style="fill: none"/>
  </g>
  <g id="axes_1">
   <g id="patch_2">
    <path d="M 40.88125 170.767352 
L 307.25734 170.767352 
L 307.25734 7.2 
L 40.88125 7.2 
L 40.88125 170.767352 
z
" style="fill: none"/>
   </g>
   <g id="matplotlib.axis_1">
    <g id="xtick_1">
     <g id="text_1">
      <!-- 50 -->
      <g style="fill: #262626" transform="translate(69.641968 185.365789) scale(0.1 -0.1)">
       <defs>
        <path id="DejaVuSans-35" d="M 691 4666 
L 3169 4666 
L 3169 4134 
L 1269 4134 
L 1269 2991 
Q 1406 3038 1543 3061 
Q 1681 3084 1819 3084 
Q 2600 3084 3056 2656 
Q 3513 2228 3513 1497 
Q 3513 744 3044 326 
Q 2575 -91 1722 -91 
Q 1428 -91 1123 -41 
Q 819 9 494 109 
L 494 744 
Q 775 591 1075 516 
Q 1375 441 1709 441 
Q 2250 441 2565 725 
Q 2881 1009 2881 1497 
Q 2881 1984 2565 2268 
Q 2250 2553 1709 2553 
Q 1456 2553 1204 2497 
Q 953 2441 691 2322 
L 691 4666 
z
" transform="scale(0.015625)"/>
        <path id="DejaVuSans-30" d="M 2034 4250 
Q 1547 4250 1301 3770 
Q 1056 3291 1056 2328 
Q 1056 1369 1301 889 
Q 1547 409 2034 409 
Q 2525 409 2770 889 
Q 3016 1369 3016 2328 
Q 3016 3291 2770 3770 
Q 2525 4250 2034 4250 
z
M 2034 4750 
Q 2819 4750 3233 4129 
Q 3647 3509 3647 2328 
Q 3647 1150 3233 529 
Q 2819 -91 2034 -91 
Q 1250 -91 836 529 
Q 422 1150 422 2328 
Q 422 3509 836 4129 
Q 1250 4750 2034 4750 
z
" transform="scale(0.015625)"/>
       </defs>
       <use xlink:href="#DejaVuSans-35"/>
       <use xlink:href="#DejaVuSans-30" transform="translate(63.623047 0)"/>
      </g>
     </g>
    </g>
    <g id="xtick_2">
     <g id="text_2">
      <!-- 100 -->
      <g style="fill: #262626" transform="translate(116.493793 185.365789) scale(0.1 -0.1)">
       <defs>
        <path id="DejaVuSans-31" d="M 794 531 
L 1825 531 
L 1825 4091 
L 703 3866 
L 703 4441 
L 1819 4666 
L 2450 4666 
L 2450 531 
L 3481 531 
L 3481 0 
L 794 0 
L 794 531 
z
" transform="scale(0.015625)"/>
       </defs>
       <use xlink:href="#DejaVuSans-31"/>
       <use xlink:href="#DejaVuSans-30" transform="translate(63.623047 0)"/>
       <use xlink:href="#DejaVuSans-30" transform="translate(127.246094 0)"/>
      </g>
     </g>
    </g>
    <g id="xtick_3">
     <g id="text_3">
      <!-- 150 -->
      <g style="fill: #262626" transform="translate(166.526868 185.365789) scale(0.1 -0.1)">
       <use xlink:href="#DejaVuSans-31"/>
       <use xlink:href="#DejaVuSans-35" transform="translate(63.623047 0)"/>
       <use xlink:href="#DejaVuSans-30" transform="translate(127.246094 0)"/>
      </g>
     </g>
    </g>
    <g id="xtick_4">
     <g id="text_4">
      <!-- 200 -->
      <g style="fill: #262626" transform="translate(216.559943 185.365789) scale(0.1 -0.1)">
       <defs>
        <path id="DejaVuSans-32" d="M 1228 531 
L 3431 531 
L 3431 0 
L 469 0 
L 469 531 
Q 828 903 1448 1529 
Q 2069 2156 2228 2338 
Q 2531 2678 2651 2914 
Q 2772 3150 2772 3378 
Q 2772 3750 2511 3984 
Q 2250 4219 1831 4219 
Q 1534 4219 1204 4116 
Q 875 4013 500 3803 
L 500 4441 
Q 881 4594 1212 4672 
Q 1544 4750 1819 4750 
Q 2544 4750 2975 4387 
Q 3406 4025 3406 3419 
Q 3406 3131 3298 2873 
Q 3191 2616 2906 2266 
Q 2828 2175 2409 1742 
Q 1991 1309 1228 531 
z
" transform="scale(0.015625)"/>
       </defs>
       <use xlink:href="#DejaVuSans-32"/>
       <use xlink:href="#DejaVuSans-30" transform="translate(63.623047 0)"/>
       <use xlink:href="#DejaVuSans-30" transform="translate(127.246094 0)"/>
      </g>
     </g>
    </g>
    <g id="xtick_5">
     <g id="text_5">
      <!-- 250 -->
      <g style="fill: #262626" transform="translate(266.593017 185.365789) scale(0.1 -0.1)">
       <use xlink:href="#DejaVuSans-32"/>
       <use xlink:href="#DejaVuSans-35" transform="translate(63.623047 0)"/>
       <use xlink:href="#DejaVuSans-30" transform="translate(127.246094 0)"/>
      </g>
     </g>
    </g>
    <g id="text_6">
     <!-- draw -->
     <g style="fill: #262626" transform="translate(161.686482 199.043914) scale(0.1 -0.1)">
      <defs>
       <path id="DejaVuSans-64" d="M 2906 2969 
L 2906 4863 
L 3481 4863 
L 3481 0 
L 2906 0 
L 2906 525 
Q 2725 213 2448 61 
Q 2172 -91 1784 -91 
Q 1150 -91 751 415 
Q 353 922 353 1747 
Q 353 2572 751 3078 
Q 1150 3584 1784 3584 
Q 2172 3584 2448 3432 
Q 2725 3281 2906 2969 
z
M 947 1747 
Q 947 1113 1208 752 
Q 1469 391 1925 391 
Q 2381 391 2643 752 
Q 2906 1113 2906 1747 
Q 2906 2381 2643 2742 
Q 2381 3103 1925 3103 
Q 1469 3103 1208 2742 
Q 947 2381 947 1747 
z
" transform="scale(0.015625)"/>
       <path id="DejaVuSans-72" d="M 2631 2963 
Q 2534 3019 2420 3045 
Q 2306 3072 2169 3072 
Q 1681 3072 1420 2755 
Q 1159 2438 1159 1844 
L 1159 0 
L 581 0 
L 581 3500 
L 1159 3500 
L 1159 2956 
Q 1341 3275 1631 3429 
Q 1922 3584 2338 3584 
Q 2397 3584 2469 3576 
Q 2541 3569 2628 3553 
L 2631 2963 
z
" transform="scale(0.015625)"/>
       <path id="DejaVuSans-61" d="M 2194 1759 
Q 1497 1759 1228 1600 
Q 959 1441 959 1056 
Q 959 750 1161 570 
Q 1363 391 1709 391 
Q 2188 391 2477 730 
Q 2766 1069 2766 1631 
L 2766 1759 
L 2194 1759 
z
M 3341 1997 
L 3341 0 
L 2766 0 
L 2766 531 
Q 2569 213 2275 61 
Q 1981 -91 1556 -91 
Q 1019 -91 701 211 
Q 384 513 384 1019 
Q 384 1609 779 1909 
Q 1175 2209 1959 2209 
L 2766 2209 
L 2766 2266 
Q 2766 2663 2505 2880 
Q 2244 3097 1772 3097 
Q 1472 3097 1187 3025 
Q 903 2953 641 2809 
L 641 3341 
Q 956 3463 1253 3523 
Q 1550 3584 1831 3584 
Q 2591 3584 2966 3190 
Q 3341 2797 3341 1997 
z
" transform="scale(0.015625)"/>
       <path id="DejaVuSans-77" d="M 269 3500 
L 844 3500 
L 1563 769 
L 2278 3500 
L 2956 3500 
L 3675 769 
L 4391 3500 
L 4966 3500 
L 4050 0 
L 3372 0 
L 2619 2869 
L 1863 0 
L 1184 0 
L 269 3500 
z
" transform="scale(0.015625)"/>
      </defs>
      <use xlink:href="#DejaVuSans-64"/>
      <use xlink:href="#DejaVuSans-72" transform="translate(63.476562 0)"/>
      <use xlink:href="#DejaVuSans-61" transform="translate(104.589844 0)"/>
      <use xlink:href="#DejaVuSans-77" transform="translate(165.869141 0)"/>
     </g>
    </g>
   </g>
   <g id="matplotlib.axis_2">
    <g id="ytick_1">
     <g id="text_7">
      <!-- 12 -->
      <g style="fill: #262626" transform="translate(21.15625 147.855255) scale(0.1 -0.1)">
       <use xlink:href="#DejaVuSans-31"/>
       <use xlink:href="#DejaVuSans-32" transform="translate(63.623047 0)"/>
      </g>
     </g>
    </g>
    <g id="ytick_2">
     <g id="text_8">
      <!-- 14 -->
      <g style="fill: #262626" transform="translate(21.15625 111.634602) scale(0.1 -0.1)">
       <defs>
        <path id="DejaVuSans-34" d="M 2419 4116 
L 825 1625 
L 2419 1625 
L 2419 4116 
z
M 2253 4666 
L 3047 4666 
L 3047 1625 
L 3713 1625 
L 3713 1100 
L 3047 1100 
L 3047 0 
L 2419 0 
L 2419 1100 
L 313 1100 
L 313 1709 
L 2253 4666 
z
" transform="scale(0.015625)"/>
       </defs>
       <use xlink:href="#DejaVuSans-31"/>
       <use xlink:href="#DejaVuSans-34" transform="translate(63.623047 0)"/>
      </g>
     </g>
    </g>
    <g id="ytick_3">
     <g id="text_9">
      <!-- 16 -->
      <g style="fill: #262626" transform="translate(21.15625 75.41395) scale(0.1 -0.1)">
       <defs>
        <path id="DejaVuSans-36" d="M 2113 2584 
Q 1688 2584 1439 2293 
Q 1191 2003 1191 1497 
Q 1191 994 1439 701 
Q 1688 409 2113 409 
Q 2538 409 2786 701 
Q 3034 994 3034 1497 
Q 3034 2003 2786 2293 
Q 2538 2584 2113 2584 
z
M 3366 4563 
L 3366 3988 
Q 3128 4100 2886 4159 
Q 2644 4219 2406 4219 
Q 1781 4219 1451 3797 
Q 1122 3375 1075 2522 
Q 1259 2794 1537 2939 
Q 1816 3084 2150 3084 
Q 2853 3084 3261 2657 
Q 3669 2231 3669 1497 
Q 3669 778 3244 343 
Q 2819 -91 2113 -91 
Q 1303 -91 875 529 
Q 447 1150 447 2328 
Q 447 3434 972 4092 
Q 1497 4750 2381 4750 
Q 2619 4750 2861 4703 
Q 3103 4656 3366 4563 
z
" transform="scale(0.015625)"/>
       </defs>
       <use xlink:href="#DejaVuSans-31"/>
       <use xlink:href="#DejaVuSans-36" transform="translate(63.623047 0)"/>
      </g>
     </g>
    </g>
    <g id="ytick_4">
     <g id="text_10">
      <!-- 18 -->
      <g style="fill: #262626" transform="translate(21.15625 39.193297) scale(0.1 -0.1)">
       <defs>
        <path id="DejaVuSans-38" d="M 2034 2216 
Q 1584 2216 1326 1975 
Q 1069 1734 1069 1313 
Q 1069 891 1326 650 
Q 1584 409 2034 409 
Q 2484 409 2743 651 
Q 3003 894 3003 1313 
Q 3003 1734 2745 1975 
Q 2488 2216 2034 2216 
z
M 1403 2484 
Q 997 2584 770 2862 
Q 544 3141 544 3541 
Q 544 4100 942 4425 
Q 1341 4750 2034 4750 
Q 2731 4750 3128 4425 
Q 3525 4100 3525 3541 
Q 3525 3141 3298 2862 
Q 3072 2584 2669 2484 
Q 3125 2378 3379 2068 
Q 3634 1759 3634 1313 
Q 3634 634 3220 271 
Q 2806 -91 2034 -91 
Q 1263 -91 848 271 
Q 434 634 434 1313 
Q 434 1759 690 2068 
Q 947 2378 1403 2484 
z
M 1172 3481 
Q 1172 3119 1398 2916 
Q 1625 2713 2034 2713 
Q 2441 2713 2670 2916 
Q 2900 3119 2900 3481 
Q 2900 3844 2670 4047 
Q 2441 4250 2034 4250 
Q 1625 4250 1398 4047 
Q 1172 3844 1172 3481 
z
" transform="scale(0.015625)"/>
       </defs>
       <use xlink:href="#DejaVuSans-31"/>
       <use xlink:href="#DejaVuSans-38" transform="translate(63.623047 0)"/>
      </g>
     </g>
    </g>
    <g id="text_11">
     <!-- train_loss -->
     <g style="fill: #262626" transform="translate(14.798438 112.778988) rotate(-90) scale(0.1 -0.1)">
      <defs>
       <path id="DejaVuSans-74" d="M 1172 4494 
L 1172 3500 
L 2356 3500 
L 2356 3053 
L 1172 3053 
L 1172 1153 
Q 1172 725 1289 603 
Q 1406 481 1766 481 
L 2356 481 
L 2356 0 
L 1766 0 
Q 1100 0 847 248 
Q 594 497 594 1153 
L 594 3053 
L 172 3053 
L 172 3500 
L 594 3500 
L 594 4494 
L 1172 4494 
z
" transform="scale(0.015625)"/>
       <path id="DejaVuSans-69" d="M 603 3500 
L 1178 3500 
L 1178 0 
L 603 0 
L 603 3500 
z
M 603 4863 
L 1178 4863 
L 1178 4134 
L 603 4134 
L 603 4863 
z
" transform="scale(0.015625)"/>
       <path id="DejaVuSans-6e" d="M 3513 2113 
L 3513 0 
L 2938 0 
L 2938 2094 
Q 2938 2591 2744 2837 
Q 2550 3084 2163 3084 
Q 1697 3084 1428 2787 
Q 1159 2491 1159 1978 
L 1159 0 
L 581 0 
L 581 3500 
L 1159 3500 
L 1159 2956 
Q 1366 3272 1645 3428 
Q 1925 3584 2291 3584 
Q 2894 3584 3203 3211 
Q 3513 2838 3513 2113 
z
" transform="scale(0.015625)"/>
       <path id="DejaVuSans-5f" d="M 3263 -1063 
L 3263 -1509 
L -63 -1509 
L -63 -1063 
L 3263 -1063 
z
" transform="scale(0.015625)"/>
       <path id="DejaVuSans-6c" d="M 603 4863 
L 1178 4863 
L 1178 0 
L 603 0 
L 603 4863 
z
" transform="scale(0.015625)"/>
       <path id="DejaVuSans-6f" d="M 1959 3097 
Q 1497 3097 1228 2736 
Q 959 2375 959 1747 
Q 959 1119 1226 758 
Q 1494 397 1959 397 
Q 2419 397 2687 759 
Q 2956 1122 2956 1747 
Q 2956 2369 2687 2733 
Q 2419 3097 1959 3097 
z
M 1959 3584 
Q 2709 3584 3137 3096 
Q 3566 2609 3566 1747 
Q 3566 888 3137 398 
Q 2709 -91 1959 -91 
Q 1206 -91 779 398 
Q 353 888 353 1747 
Q 353 2609 779 3096 
Q 1206 3584 1959 3584 
z
" transform="scale(0.015625)"/>
       <path id="DejaVuSans-73" d="M 2834 3397 
L 2834 2853 
Q 2591 2978 2328 3040 
Q 2066 3103 1784 3103 
Q 1356 3103 1142 2972 
Q 928 2841 928 2578 
Q 928 2378 1081 2264 
Q 1234 2150 1697 2047 
L 1894 2003 
Q 2506 1872 2764 1633 
Q 3022 1394 3022 966 
Q 3022 478 2636 193 
Q 2250 -91 1575 -91 
Q 1294 -91 989 -36 
Q 684 19 347 128 
L 347 722 
Q 666 556 975 473 
Q 1284 391 1588 391 
Q 1994 391 2212 530 
Q 2431 669 2431 922 
Q 2431 1156 2273 1281 
Q 2116 1406 1581 1522 
L 1381 1569 
Q 847 1681 609 1914 
Q 372 2147 372 2553 
Q 372 3047 722 3315 
Q 1072 3584 1716 3584 
Q 2034 3584 2315 3537 
Q 2597 3491 2834 3397 
z
" transform="scale(0.015625)"/>
      </defs>
      <use xlink:href="#DejaVuSans-74"/>
      <use xlink:href="#DejaVuSans-72" transform="translate(39.208984 0)"/>
      <use xlink:href="#DejaVuSans-61" transform="translate(80.322266 0)"/>
      <use xlink:href="#DejaVuSans-69" transform="translate(141.601562 0)"/>
      <use xlink:href="#DejaVuSans-6e" transform="translate(169.384766 0)"/>
      <use xlink:href="#DejaVuSans-5f" transform="translate(232.763672 0)"/>
      <use xlink:href="#DejaVuSans-6c" transform="translate(282.763672 0)"/>
      <use xlink:href="#DejaVuSans-6f" transform="translate(310.546875 0)"/>
      <use xlink:href="#DejaVuSans-73" transform="translate(371.728516 0)"/>
      <use xlink:href="#DejaVuSans-73" transform="translate(423.828125 0)"/>
     </g>
    </g>
   </g>
   <g id="line2d_1">
    <path d="M 52.989254 150.163031 
L 53.989916 150.670895 
L 54.990577 155.256094 
L 55.991239 151.094648 
L 56.9919 145.525206 
L 57.992562 148.464255 
L 58.993223 144.349511 
L 59.993885 144.378112 
L 60.994546 151.85571 
L 61.995208 139.085202 
L 62.995869 133.778976 
L 63.996531 131.069999 
L 64.997192 126.776669 
L 65.997853 125.444443 
L 66.998515 129.614439 
L 67.999176 120.277804 
L 68.999838 116.092057 
L 70.000499 113.486242 
L 71.001161 109.107332 
L 72.001822 108.279741 
L 73.002484 108.159187 
L 74.003145 100.857757 
L 75.003807 98.124099 
L 76.004468 98.809288 
L 77.00513 97.807273 
L 78.005791 98.938167 
L 79.006453 104.892379 
L 80.007114 96.797037 
L 81.007776 94.498099 
L 82.008437 97.116005 
L 83.009099 95.409958 
L 84.00976 96.491835 
L 85.010422 110.448228 
L 86.011083 97.34941 
L 87.011745 95.078693 
L 88.012406 99.631681 
L 89.013068 101.065894 
L 90.013729 98.458697 
L 91.014391 111.450727 
L 92.015052 96.221245 
L 93.015714 94.161152 
L 95.017037 103.653557 
L 96.017698 99.702459 
L 97.01836 121.434432 
L 98.019021 102.132849 
L 99.019683 98.079003 
L 100.020344 97.450343 
L 101.021006 100.096902 
L 102.021667 94.063224 
L 103.022329 114.314524 
L 104.02299 94.192604 
L 105.023652 86.766906 
L 106.024313 84.923949 
L 107.024975 91.373522 
L 108.025636 86.838807 
L 109.026298 104.253944 
L 110.026959 91.129823 
L 111.027621 83.623658 
L 112.028282 83.204172 
L 113.028944 87.403736 
L 114.029605 81.018085 
L 115.030267 87.562649 
L 116.030928 78.441458 
L 117.03159 73.074972 
L 118.032251 73.079894 
L 119.032913 77.60264 
L 120.033574 71.497908 
L 121.034236 81.482304 
L 122.034897 70.249189 
L 123.035559 65.549688 
L 124.03622 61.443459 
L 125.036882 65.438461 
L 126.037543 55.649334 
L 127.038205 69.790807 
L 128.038866 56.960472 
L 129.039528 55.911721 
L 130.040189 54.158609 
L 131.040851 60.289939 
L 132.041512 54.047796 
L 133.042174 66.927424 
L 134.042835 54.113151 
L 135.043497 51.254431 
L 136.044158 47.004297 
L 137.04482 44.930042 
L 138.045481 41.736361 
L 139.046143 45.590153 
L 140.046804 35.918541 
L 142.048127 35.864861 
L 143.048789 34.331787 
L 144.04945 42.53751 
L 145.050112 49.456069 
L 146.050773 49.533652 
L 147.051434 54.861001 
L 148.052096 56.950178 
L 149.052757 53.156594 
L 150.053419 52.847644 
L 151.05408 57.073495 
L 152.054742 45.772711 
L 153.055403 43.770892 
L 154.056065 38.313041 
L 155.056726 34.465571 
L 156.057388 25.490339 
L 157.058049 40.360318 
L 158.058711 23.316049 
L 159.059372 23.639265 
L 160.060034 20.171903 
L 161.060695 23.012764 
L 162.061357 14.63488 
L 163.062018 41.175837 
L 164.06268 25.473621 
L 165.063341 30.181861 
L 166.064003 31.927131 
L 167.064664 39.276437 
L 168.065326 34.524121 
L 169.065987 63.023373 
L 170.066649 48.857167 
L 171.06731 53.408722 
L 172.067972 56.308754 
L 173.068633 59.989211 
L 174.069295 56.998227 
L 175.069956 77.951297 
L 176.070618 64.520212 
L 178.071941 68.370722 
L 179.072602 66.180231 
L 180.073264 65.063672 
L 181.073925 76.474475 
L 182.074587 64.196789 
L 183.075248 63.820826 
L 184.07591 64.893446 
L 185.076571 58.11482 
L 186.077233 59.569379 
L 187.077894 64.241072 
L 188.078556 55.578107 
L 189.079217 55.548815 
L 190.079879 58.221799 
L 191.08054 51.362273 
L 192.081202 56.781022 
L 193.081863 59.444783 
L 194.082525 56.411484 
L 195.083186 58.236237 
L 196.083848 63.926665 
L 197.084509 59.636737 
L 198.085171 67.101968 
L 199.085832 70.311677 
L 200.086494 70.077753 
L 201.087155 71.962922 
L 202.087817 77.995511 
L 203.088478 75.459196 
L 204.08914 80.765923 
L 205.089801 83.677648 
L 206.090463 81.505603 
L 207.091124 80.747546 
L 208.091786 84.415308 
L 209.092447 82.888555 
L 210.093109 84.249503 
L 211.09377 88.411778 
L 212.094432 83.539478 
L 213.095093 81.610561 
L 214.095755 83.763124 
L 215.096416 85.09155 
L 216.097078 84.317466 
L 217.097739 91.437754 
L 218.098401 85.504077 
L 219.099062 83.893419 
L 220.099724 85.366545 
L 221.100385 89.488112 
L 222.101047 87.240176 
L 223.101708 96.709161 
L 224.10237 90.542338 
L 225.103031 89.591256 
L 226.103693 90.954104 
L 227.104354 97.046816 
L 228.105015 94.382588 
L 229.105677 105.271952 
L 230.106338 100.210703 
L 231.107 100.610207 
L 232.107661 102.266685 
L 233.108323 109.625784 
L 234.108984 107.707904 
L 235.109646 118.426073 
L 236.110307 115.331755 
L 237.110969 116.627072 
L 238.11163 118.558545 
L 239.112292 125.713721 
L 240.112953 124.412825 
L 241.113615 133.206552 
L 242.114276 131.785966 
L 244.115599 134.402593 
L 245.116261 139.711064 
L 246.116922 138.837825 
L 247.117584 143.810092 
L 248.118245 143.199929 
L 249.118907 143.903823 
L 250.119568 144.025345 
L 251.12023 146.603629 
L 252.120891 145.934416 
L 253.121553 146.982908 
L 254.122214 146.74769 
L 255.122876 147.075552 
L 256.123537 146.300811 
L 257.124199 146.881767 
L 258.12486 147.255934 
L 259.125522 146.87662 
L 260.126183 146.377513 
L 261.126845 147.532828 
L 262.127506 150.044204 
L 263.128168 157.228016 
L 264.128829 162.515744 
L 265.129491 162.649718 
L 266.130152 163.2276 
L 267.130814 163.332472 
L 268.131475 163.308845 
L 269.132137 162.524967 
L 270.132798 162.864176 
L 271.13346 161.448012 
L 272.134121 161.633765 
L 273.134783 159.44431 
L 274.135444 158.713145 
L 275.136106 157.423562 
L 276.136767 155.850021 
L 277.137429 153.477282 
L 278.13809 153.316935 
L 279.138752 149.668172 
L 280.139413 149.128079 
L 281.140075 148.757713 
L 282.140736 146.321346 
L 283.141398 144.562535 
L 284.142059 145.483979 
L 285.142721 141.841727 
L 286.143382 142.963985 
L 287.144044 144.456368 
L 288.144705 141.771744 
L 289.145367 140.665462 
L 290.146028 143.363575 
L 291.14669 139.855228 
L 292.147351 142.180211 
L 293.148013 144.058091 
L 294.148674 140.171726 
L 295.149336 137.5975 
L 295.149336 137.5975 
" clip-path="url(#pefa62db16b)" style="fill: none; stroke: #1ac938; stroke-width: 1.5; stroke-linecap: round"/>
   </g>
  </g>
 </g>
 <defs>
  <clipPath id="pefa62db16b">
   <rect x="40.88125" y="7.2" width="266.37609" height="163.567352"/>
  </clipPath>
 </defs>
</svg>
