<?xml version="1.0" encoding="utf-8" standalone="no"?>
<!DOCTYPE svg PUBLIC "-//W3C//DTD SVG 1.1//EN"
  "http://www.w3.org/Graphics/SVG/1.1/DTD/svg11.dtd">
<svg xmlns:xlink="http://www.w3.org/1999/xlink" width="323.997965pt" height="208.323602pt" viewBox="0 0 323.997965 208.323602" xmlns="http://www.w3.org/2000/svg" version="1.1">
 <metadata>
  <rdf:RDF xmlns:dc="http://purl.org/dc/elements/1.1/" xmlns:cc="http://creativecommons.org/ns#" xmlns:rdf="http://www.w3.org/1999/02/22-rdf-syntax-ns#">
   <cc:Work>
    <dc:type rdf:resource="http://purl.org/dc/dcmitype/StillImage"/>
    <dc:date>2025-11-30T08:03:11.992035</dc:date>
    <dc:format>image/svg+xml</dc:format>
    <dc:creator>
     <cc:Agent>
      <dc:title>Matplotlib v3.10.6, https://matplotlib.org/</dc:title>
     </cc:Agent>
    </dc:creator>
   </cc:Work>
  </rdf:RDF>
 </metadata>
 <defs>
  <style type="text/css">*{stroke-linejoin: round; stroke-linecap: butt}</style>
 </defs>
 <g id="figure_1">
  <g id="patch_1">
   <path d="M 0 208.323602 
L 323.997965 208.323602 
L 323.997965 0 
L 0 0 
L 0 208.323602 
z
" style="fill: none"/>
  </g>
  <g id="axes_1">
   <g id="patch_2">
    <path d="M 50.421875 170.767352 
L 316.797965 170.767352 
L 316.797965 7.2 
L 50.421875 7.2 
L 50.421875 170.767352 
z
" style="fill: none"/>
   </g>
   <g id="matplotlib.axis_1">
    <g id="xtick_1">
     <g id="text_1">
      <!-- 50 -->
      <g style="fill: #262626" transform="translate(79.182593 185.365789) scale(0.1 -0.1)">
       <defs>
        <path id="DejaVuSans-35" d="M 691 4666 
L 3169 4666 
L 3169 4134 
L 1269 4134 
L 1269 2991 
Q 1406 3038 1543 3061 
Q 1681 3084 1819 3084 
Q 2600 3084 3056 2656 
Q 3513 2228 3513 1497 
Q 3513 744 3044 326 
Q 2575 -91 1722 -91 
Q 1428 -91 1123 -41 
Q 819 9 494 109 
L 494 744 
Q 775 591 1075 516 
Q 1375 441 1709 441 
Q 2250 441 2565 725 
Q 2881 1009 2881 1497 
Q 2881 1984 2565 2268 
Q 2250 2553 1709 2553 
Q 1456 2553 1204 2497 
Q 953 2441 691 2322 
L 691 4666 
z
" transform="scale(0.015625)"/>
        <path id="DejaVuSans-30" d="M 2034 4250 
Q 1547 4250 1301 3770 
Q 1056 3291 1056 2328 
Q 1056 1369 1301 889 
Q 1547 409 2034 409 
Q 2525 409 2770 889 
Q 3016 1369 3016 2328 
Q 3016 3291 2770 3770 
Q 2525 4250 2034 4250 
z
M 2034 4750 
Q 2819 4750 3233 4129 
Q 3647 3509 3647 2328 
Q 3647 1150 3233 529 
Q 2819 -91 2034 -91 
Q 1250 -91 836 529 
Q 422 1150 422 2328 
Q 422 3509 836 4129 
Q 1250 4750 2034 4750 
z
" transform="scale(0.015625)"/>
       </defs>
       <use xlink:href="#DejaVuSans-35"/>
       <use xlink:href="#DejaVuSans-30" transform="translate(63.623047 0)"/>
      </g>
     </g>
    </g>
    <g id="xtick_2">
     <g id="text_2">
      <!-- 100 -->
      <g style="fill: #262626" transform="translate(126.034418 185.365789) scale(0.1 -0.1)">
       <defs>
        <path id="DejaVuSans-31" d="M 794 531 
L 1825 531 
L 1825 4091 
L 703 3866 
L 703 4441 
L 1819 4666 
L 2450 4666 
L 2450 531 
L 3481 531 
L 3481 0 
L 794 0 
L 794 531 
z
" transform="scale(0.015625)"/>
       </defs>
       <use xlink:href="#DejaVuSans-31"/>
       <use xlink:href="#DejaVuSans-30" transform="translate(63.623047 0)"/>
       <use xlink:href="#DejaVuSans-30" transform="translate(127.246094 0)"/>
      </g>
     </g>
    </g>
    <g id="xtick_3">
     <g id="text_3">
      <!-- 150 -->
      <g style="fill: #262626" transform="translate(176.067493 185.365789) scale(0.1 -0.1)">
       <use xlink:href="#DejaVuSans-31"/>
       <use xlink:href="#DejaVuSans-35" transform="translate(63.623047 0)"/>
       <use xlink:href="#DejaVuSans-30" transform="translate(127.246094 0)"/>
      </g>
     </g>
    </g>
    <g id="xtick_4">
     <g id="text_4">
      <!-- 200 -->
      <g style="fill: #262626" transform="translate(226.100568 185.365789) scale(0.1 -0.1)">
       <defs>
        <path id="DejaVuSans-32" d="M 1228 531 
L 3431 531 
L 3431 0 
L 469 0 
L 469 531 
Q 828 903 1448 1529 
Q 2069 2156 2228 2338 
Q 2531 2678 2651 2914 
Q 2772 3150 2772 3378 
Q 2772 3750 2511 3984 
Q 2250 4219 1831 4219 
Q 1534 4219 1204 4116 
Q 875 4013 500 3803 
L 500 4441 
Q 881 4594 1212 4672 
Q 1544 4750 1819 4750 
Q 2544 4750 2975 4387 
Q 3406 4025 3406 3419 
Q 3406 3131 3298 2873 
Q 3191 2616 2906 2266 
Q 2828 2175 2409 1742 
Q 1991 1309 1228 531 
z
" transform="scale(0.015625)"/>
       </defs>
       <use xlink:href="#DejaVuSans-32"/>
       <use xlink:href="#DejaVuSans-30" transform="translate(63.623047 0)"/>
       <use xlink:href="#DejaVuSans-30" transform="translate(127.246094 0)"/>
      </g>
     </g>
    </g>
    <g id="xtick_5">
     <g id="text_5">
      <!-- 250 -->
      <g style="fill: #262626" transform="translate(276.133642 185.365789) scale(0.1 -0.1)">
       <use xlink:href="#DejaVuSans-32"/>
       <use xlink:href="#DejaVuSans-35" transform="translate(63.623047 0)"/>
       <use xlink:href="#DejaVuSans-30" transform="translate(127.246094 0)"/>
      </g>
     </g>
    </g>
    <g id="text_6">
     <!-- draw -->
     <g style="fill: #262626" transform="translate(171.227107 199.043914) scale(0.1 -0.1)">
      <defs>
       <path id="DejaVuSans-64" d="M 2906 2969 
L 2906 4863 
L 3481 4863 
L 3481 0 
L 2906 0 
L 2906 525 
Q 2725 213 2448 61 
Q 2172 -91 1784 -91 
Q 1150 -91 751 415 
Q 353 922 353 1747 
Q 353 2572 751 3078 
Q 1150 3584 1784 3584 
Q 2172 3584 2448 3432 
Q 2725 3281 2906 2969 
z
M 947 1747 
Q 947 1113 1208 752 
Q 1469 391 1925 391 
Q 2381 391 2643 752 
Q 2906 1113 2906 1747 
Q 2906 2381 2643 2742 
Q 2381 3103 1925 3103 
Q 1469 3103 1208 2742 
Q 947 2381 947 1747 
z
" transform="scale(0.015625)"/>
       <path id="DejaVuSans-72" d="M 2631 2963 
Q 2534 3019 2420 3045 
Q 2306 3072 2169 3072 
Q 1681 3072 1420 2755 
Q 1159 2438 1159 1844 
L 1159 0 
L 581 0 
L 581 3500 
L 1159 3500 
L 1159 2956 
Q 1341 3275 1631 3429 
Q 1922 3584 2338 3584 
Q 2397 3584 2469 3576 
Q 2541 3569 2628 3553 
L 2631 2963 
z
" transform="scale(0.015625)"/>
       <path id="DejaVuSans-61" d="M 2194 1759 
Q 1497 1759 1228 1600 
Q 959 1441 959 1056 
Q 959 750 1161 570 
Q 1363 391 1709 391 
Q 2188 391 2477 730 
Q 2766 1069 2766 1631 
L 2766 1759 
L 2194 1759 
z
M 3341 1997 
L 3341 0 
L 2766 0 
L 2766 531 
Q 2569 213 2275 61 
Q 1981 -91 1556 -91 
Q 1019 -91 701 211 
Q 384 513 384 1019 
Q 384 1609 779 1909 
Q 1175 2209 1959 2209 
L 2766 2209 
L 2766 2266 
Q 2766 2663 2505 2880 
Q 2244 3097 1772 3097 
Q 1472 3097 1187 3025 
Q 903 2953 641 2809 
L 641 3341 
Q 956 3463 1253 3523 
Q 1550 3584 1831 3584 
Q 2591 3584 2966 3190 
Q 3341 2797 3341 1997 
z
" transform="scale(0.015625)"/>
       <path id="DejaVuSans-77" d="M 269 3500 
L 844 3500 
L 1563 769 
L 2278 3500 
L 2956 3500 
L 3675 769 
L 4391 3500 
L 4966 3500 
L 4050 0 
L 3372 0 
L 2619 2869 
L 1863 0 
L 1184 0 
L 269 3500 
z
" transform="scale(0.015625)"/>
      </defs>
      <use xlink:href="#DejaVuSans-64"/>
      <use xlink:href="#DejaVuSans-72" transform="translate(63.476562 0)"/>
      <use xlink:href="#DejaVuSans-61" transform="translate(104.589844 0)"/>
      <use xlink:href="#DejaVuSans-77" transform="translate(165.869141 0)"/>
     </g>
    </g>
   </g>
   <g id="matplotlib.axis_2">
    <g id="ytick_1">
     <g id="text_7">
      <!-- 0.04 -->
      <g style="fill: #262626" transform="translate(21.15625 174.489392) scale(0.1 -0.1)">
       <defs>
        <path id="DejaVuSans-2e" d="M 684 794 
L 1344 794 
L 1344 0 
L 684 0 
L 684 794 
z
" transform="scale(0.015625)"/>
        <path id="DejaVuSans-34" d="M 2419 4116 
L 825 1625 
L 2419 1625 
L 2419 4116 
z
M 2253 4666 
L 3047 4666 
L 3047 1625 
L 3713 1625 
L 3713 1100 
L 3047 1100 
L 3047 0 
L 2419 0 
L 2419 1100 
L 313 1100 
L 313 1709 
L 2253 4666 
z
" transform="scale(0.015625)"/>
       </defs>
       <use xlink:href="#DejaVuSans-30"/>
       <use xlink:href="#DejaVuSans-2e" transform="translate(63.623047 0)"/>
       <use xlink:href="#DejaVuSans-30" transform="translate(95.410156 0)"/>
       <use xlink:href="#DejaVuSans-34" transform="translate(159.033203 0)"/>
      </g>
     </g>
    </g>
    <g id="ytick_2">
     <g id="text_8">
      <!-- 0.06 -->
      <g style="fill: #262626" transform="translate(21.15625 153.672994) scale(0.1 -0.1)">
       <defs>
        <path id="DejaVuSans-36" d="M 2113 2584 
Q 1688 2584 1439 2293 
Q 1191 2003 1191 1497 
Q 1191 994 1439 701 
Q 1688 409 2113 409 
Q 2538 409 2786 701 
Q 3034 994 3034 1497 
Q 3034 2003 2786 2293 
Q 2538 2584 2113 2584 
z
M 3366 4563 
L 3366 3988 
Q 3128 4100 2886 4159 
Q 2644 4219 2406 4219 
Q 1781 4219 1451 3797 
Q 1122 3375 1075 2522 
Q 1259 2794 1537 2939 
Q 1816 3084 2150 3084 
Q 2853 3084 3261 2657 
Q 3669 2231 3669 1497 
Q 3669 778 3244 343 
Q 2819 -91 2113 -91 
Q 1303 -91 875 529 
Q 447 1150 447 2328 
Q 447 3434 972 4092 
Q 1497 4750 2381 4750 
Q 2619 4750 2861 4703 
Q 3103 4656 3366 4563 
z
" transform="scale(0.015625)"/>
       </defs>
       <use xlink:href="#DejaVuSans-30"/>
       <use xlink:href="#DejaVuSans-2e" transform="translate(63.623047 0)"/>
       <use xlink:href="#DejaVuSans-30" transform="translate(95.410156 0)"/>
       <use xlink:href="#DejaVuSans-36" transform="translate(159.033203 0)"/>
      </g>
     </g>
    </g>
    <g id="ytick_3">
     <g id="text_9">
      <!-- 0.08 -->
      <g style="fill: #262626" transform="translate(21.15625 132.856597) scale(0.1 -0.1)">
       <defs>
        <path id="DejaVuSans-38" d="M 2034 2216 
Q 1584 2216 1326 1975 
Q 1069 1734 1069 1313 
Q 1069 891 1326 650 
Q 1584 409 2034 409 
Q 2484 409 2743 651 
Q 3003 894 3003 1313 
Q 3003 1734 2745 1975 
Q 2488 2216 2034 2216 
z
M 1403 2484 
Q 997 2584 770 2862 
Q 544 3141 544 3541 
Q 544 4100 942 4425 
Q 1341 4750 2034 4750 
Q 2731 4750 3128 4425 
Q 3525 4100 3525 3541 
Q 3525 3141 3298 2862 
Q 3072 2584 2669 2484 
Q 3125 2378 3379 2068 
Q 3634 1759 3634 1313 
Q 3634 634 3220 271 
Q 2806 -91 2034 -91 
Q 1263 -91 848 271 
Q 434 634 434 1313 
Q 434 1759 690 2068 
Q 947 2378 1403 2484 
z
M 1172 3481 
Q 1172 3119 1398 2916 
Q 1625 2713 2034 2713 
Q 2441 2713 2670 2916 
Q 2900 3119 2900 3481 
Q 2900 3844 2670 4047 
Q 2441 4250 2034 4250 
Q 1625 4250 1398 4047 
Q 1172 3844 1172 3481 
z
" transform="scale(0.015625)"/>
       </defs>
       <use xlink:href="#DejaVuSans-30"/>
       <use xlink:href="#DejaVuSans-2e" transform="translate(63.623047 0)"/>
       <use xlink:href="#DejaVuSans-30" transform="translate(95.410156 0)"/>
       <use xlink:href="#DejaVuSans-38" transform="translate(159.033203 0)"/>
      </g>
     </g>
    </g>
    <g id="ytick_4">
     <g id="text_10">
      <!-- 0.10 -->
      <g style="fill: #262626" transform="translate(21.15625 112.040199) scale(0.1 -0.1)">
       <use xlink:href="#DejaVuSans-30"/>
       <use xlink:href="#DejaVuSans-2e" transform="translate(63.623047 0)"/>
       <use xlink:href="#DejaVuSans-31" transform="translate(95.410156 0)"/>
       <use xlink:href="#DejaVuSans-30" transform="translate(159.033203 0)"/>
      </g>
     </g>
    </g>
    <g id="ytick_5">
     <g id="text_11">
      <!-- 0.12 -->
      <g style="fill: #262626" transform="translate(21.15625 91.223801) scale(0.1 -0.1)">
       <use xlink:href="#DejaVuSans-30"/>
       <use xlink:href="#DejaVuSans-2e" transform="translate(63.623047 0)"/>
       <use xlink:href="#DejaVuSans-31" transform="translate(95.410156 0)"/>
       <use xlink:href="#DejaVuSans-32" transform="translate(159.033203 0)"/>
      </g>
     </g>
    </g>
    <g id="ytick_6">
     <g id="text_12">
      <!-- 0.14 -->
      <g style="fill: #262626" transform="translate(21.15625 70.407404) scale(0.1 -0.1)">
       <use xlink:href="#DejaVuSans-30"/>
       <use xlink:href="#DejaVuSans-2e" transform="translate(63.623047 0)"/>
       <use xlink:href="#DejaVuSans-31" transform="translate(95.410156 0)"/>
       <use xlink:href="#DejaVuSans-34" transform="translate(159.033203 0)"/>
      </g>
     </g>
    </g>
    <g id="ytick_7">
     <g id="text_13">
      <!-- 0.16 -->
      <g style="fill: #262626" transform="translate(21.15625 49.591006) scale(0.1 -0.1)">
       <use xlink:href="#DejaVuSans-30"/>
       <use xlink:href="#DejaVuSans-2e" transform="translate(63.623047 0)"/>
       <use xlink:href="#DejaVuSans-31" transform="translate(95.410156 0)"/>
       <use xlink:href="#DejaVuSans-36" transform="translate(159.033203 0)"/>
      </g>
     </g>
    </g>
    <g id="ytick_8">
     <g id="text_14">
      <!-- 0.18 -->
      <g style="fill: #262626" transform="translate(21.15625 28.774609) scale(0.1 -0.1)">
       <use xlink:href="#DejaVuSans-30"/>
       <use xlink:href="#DejaVuSans-2e" transform="translate(63.623047 0)"/>
       <use xlink:href="#DejaVuSans-31" transform="translate(95.410156 0)"/>
       <use xlink:href="#DejaVuSans-38" transform="translate(159.033203 0)"/>
      </g>
     </g>
    </g>
    <g id="text_15">
     <!-- train_dtf -->
     <g style="fill: #262626" transform="translate(14.798437 110.015707) rotate(-90) scale(0.1 -0.1)">
      <defs>
       <path id="DejaVuSans-74" d="M 1172 4494 
L 1172 3500 
L 2356 3500 
L 2356 3053 
L 1172 3053 
L 1172 1153 
Q 1172 725 1289 603 
Q 1406 481 1766 481 
L 2356 481 
L 2356 0 
L 1766 0 
Q 1100 0 847 248 
Q 594 497 594 1153 
L 594 3053 
L 172 3053 
L 172 3500 
L 594 3500 
L 594 4494 
L 1172 4494 
z
" transform="scale(0.015625)"/>
       <path id="DejaVuSans-69" d="M 603 3500 
L 1178 3500 
L 1178 0 
L 603 0 
L 603 3500 
z
M 603 4863 
L 1178 4863 
L 1178 4134 
L 603 4134 
L 603 4863 
z
" transform="scale(0.015625)"/>
       <path id="DejaVuSans-6e" d="M 3513 2113 
L 3513 0 
L 2938 0 
L 2938 2094 
Q 2938 2591 2744 2837 
Q 2550 3084 2163 3084 
Q 1697 3084 1428 2787 
Q 1159 2491 1159 1978 
L 1159 0 
L 581 0 
L 581 3500 
L 1159 3500 
L 1159 2956 
Q 1366 3272 1645 3428 
Q 1925 3584 2291 3584 
Q 2894 3584 3203 3211 
Q 3513 2838 3513 2113 
z
" transform="scale(0.015625)"/>
       <path id="DejaVuSans-5f" d="M 3263 -1063 
L 3263 -1509 
L -63 -1509 
L -63 -1063 
L 3263 -1063 
z
" transform="scale(0.015625)"/>
       <path id="DejaVuSans-66" d="M 2375 4863 
L 2375 4384 
L 1825 4384 
Q 1516 4384 1395 4259 
Q 1275 4134 1275 3809 
L 1275 3500 
L 2222 3500 
L 2222 3053 
L 1275 3053 
L 1275 0 
L 697 0 
L 697 3053 
L 147 3053 
L 147 3500 
L 697 3500 
L 697 3744 
Q 697 4328 969 4595 
Q 1241 4863 1831 4863 
L 2375 4863 
z
" transform="scale(0.015625)"/>
      </defs>
      <use xlink:href="#DejaVuSans-74"/>
      <use xlink:href="#DejaVuSans-72" transform="translate(39.208984 0)"/>
      <use xlink:href="#DejaVuSans-61" transform="translate(80.322266 0)"/>
      <use xlink:href="#DejaVuSans-69" transform="translate(141.601562 0)"/>
      <use xlink:href="#DejaVuSans-6e" transform="translate(169.384766 0)"/>
      <use xlink:href="#DejaVuSans-5f" transform="translate(232.763672 0)"/>
      <use xlink:href="#DejaVuSans-64" transform="translate(282.763672 0)"/>
      <use xlink:href="#DejaVuSans-74" transform="translate(346.240234 0)"/>
      <use xlink:href="#DejaVuSans-66" transform="translate(385.449219 0)"/>
     </g>
    </g>
   </g>
   <g id="line2d_1">
    <path d="M 62.529879 162.794561 
L 63.530541 162.991637 
L 64.531202 162.889935 
L 65.531864 163.187167 
L 66.532525 162.742788 
L 67.533187 162.938486 
L 68.533848 162.888662 
L 69.53451 162.26284 
L 70.535171 162.691328 
L 71.535833 162.966141 
L 72.536494 162.828286 
L 73.537156 162.039562 
L 74.537817 162.874502 
L 75.538478 162.403532 
L 76.53914 162.939779 
L 77.539801 163.005057 
L 79.541124 162.74696 
L 80.541786 163.032377 
L 81.542447 162.446348 
L 82.543109 162.111461 
L 83.54377 162.878578 
L 85.545093 162.898005 
L 86.545755 163.022503 
L 87.546416 162.719285 
L 88.547078 14.63488 
L 89.547739 162.725718 
L 90.548401 162.963597 
L 91.549062 162.751881 
L 92.549724 162.80209 
L 93.550385 162.53976 
L 96.55237 162.726875 
L 97.553031 162.139397 
L 98.553693 160.912529 
L 99.554354 162.91179 
L 100.555016 162.598176 
L 101.555677 162.847555 
L 102.556339 162.552471 
L 104.557662 162.70041 
L 105.558323 162.819828 
L 106.558985 162.58439 
L 107.559646 163.016162 
L 108.560308 162.769065 
L 109.560969 162.375793 
L 112.562954 162.808316 
L 113.563615 162.671306 
L 114.564277 162.395742 
L 116.5656 162.61826 
L 117.566261 162.795928 
L 119.567584 162.839235 
L 121.568907 162.505046 
L 122.569569 162.772613 
L 123.57023 162.648375 
L 124.570892 162.760546 
L 125.571553 163.00076 
L 127.572876 162.598677 
L 128.573538 162.894157 
L 129.574199 162.671201 
L 130.574861 163.001751 
L 131.575522 163.062587 
L 133.576845 162.693737 
L 134.577507 162.341422 
L 135.578168 163.004696 
L 137.579491 162.550848 
L 138.580153 162.699862 
L 140.581476 162.56918 
L 141.582137 162.928156 
L 142.582799 162.61549 
L 143.58346 163.046845 
L 144.584122 162.773418 
L 145.584783 162.132091 
L 146.585445 162.538858 
L 147.586106 162.510169 
L 148.586768 162.980159 
L 149.587429 163.035385 
L 150.588091 162.318987 
L 151.588752 162.520494 
L 152.589414 162.925518 
L 153.590075 162.836892 
L 155.591398 162.927258 
L 156.592059 162.882254 
L 157.592721 162.562485 
L 158.593382 162.933296 
L 159.594044 162.451544 
L 160.594705 162.471234 
L 161.595367 162.995655 
L 162.596028 162.803616 
L 163.59669 162.479993 
L 164.597351 162.82244 
L 166.598674 162.805744 
L 167.599336 162.984184 
L 169.600659 162.646784 
L 171.601982 162.788299 
L 172.602643 162.364671 
L 173.603305 163.005605 
L 174.603966 162.686576 
L 175.604628 162.672384 
L 177.605951 162.938459 
L 178.606612 156.202419 
L 179.607274 161.240622 
L 180.607935 161.847496 
L 181.608597 162.9324 
L 183.60992 163.111455 
L 185.611243 163.215013 
L 186.611904 163.017804 
L 187.612566 162.978198 
L 188.613227 163.197787 
L 189.613889 162.638911 
L 190.61455 163.032288 
L 191.615212 162.973194 
L 192.615873 163.332472 
L 193.616535 162.383149 
L 194.617196 163.227755 
L 195.617858 162.965875 
L 196.618519 163.07136 
L 198.619842 162.952567 
L 199.620504 162.479439 
L 201.621827 163.010817 
L 202.622488 162.965374 
L 203.62315 163.228142 
L 204.623811 162.829364 
L 205.624473 163.214064 
L 206.625134 162.053706 
L 207.625796 162.824472 
L 208.626457 163.131028 
L 209.627119 163.157244 
L 210.62778 163.024519 
L 211.628442 163.093863 
L 212.629103 162.68838 
L 213.629765 162.521766 
L 214.630426 163.064968 
L 215.631088 162.898594 
L 216.631749 162.877509 
L 217.632411 162.655813 
L 218.633072 163.299592 
L 219.633734 162.263367 
L 220.634395 163.043946 
L 221.635057 162.913558 
L 222.635718 162.926717 
L 223.63638 162.645481 
L 224.637041 162.802418 
L 225.637703 162.402336 
L 226.638364 163.003081 
L 227.639026 162.895287 
L 228.639687 163.038439 
L 229.640349 162.779257 
L 230.64101 162.82419 
L 231.641672 162.726515 
L 232.642333 162.984944 
L 233.642995 162.853817 
L 234.643656 162.949387 
L 235.644318 162.645731 
L 236.644979 163.119943 
L 237.64564 163.097076 
L 238.646302 162.940899 
L 239.646963 163.078441 
L 240.647625 162.990661 
L 241.648286 162.771228 
L 242.648948 162.684177 
L 243.649609 161.568284 
L 244.650271 162.934109 
L 245.650932 162.820354 
L 246.651594 163.090286 
L 247.652255 162.456821 
L 249.653578 162.96847 
L 250.65424 162.528428 
L 251.654901 163.121987 
L 252.655563 163.191248 
L 254.656886 162.331835 
L 255.657547 162.863818 
L 256.658209 163.080725 
L 258.659532 163.158349 
L 259.660193 162.903922 
L 260.660855 162.903505 
L 261.661516 162.073008 
L 262.662178 162.960305 
L 264.663501 163.110767 
L 265.664162 162.897843 
L 266.664824 162.900949 
L 267.665485 162.547293 
L 268.666147 162.906915 
L 269.666808 163.090318 
L 270.66747 162.465111 
L 272.668793 162.865235 
L 273.669454 162.858864 
L 274.670116 163.081642 
L 275.670777 162.668463 
L 276.671439 162.120766 
L 278.672762 163.234273 
L 279.673423 162.826756 
L 282.675408 162.910096 
L 283.676069 162.724178 
L 284.676731 162.717911 
L 285.677392 162.906561 
L 286.678054 162.830323 
L 288.679377 163.172405 
L 289.680038 162.928927 
L 290.6807 163.054967 
L 291.681361 162.912671 
L 292.682023 163.160444 
L 293.682684 163.065666 
L 294.683346 162.585655 
L 295.684007 162.327257 
L 296.684669 162.936728 
L 297.68533 161.751561 
L 298.685992 162.896935 
L 299.686653 163.084102 
L 300.687315 162.811 
L 301.687976 163.0326 
L 302.688638 162.790874 
L 303.689299 162.975405 
L 304.689961 160.468279 
L 304.689961 160.468279 
" clip-path="url(#p12c91dc078)" style="fill: none; stroke: #8b2be2; stroke-width: 1.5; stroke-linecap: round"/>
   </g>
  </g>
 </g>
 <defs>
  <clipPath id="p12c91dc078">
   <rect x="50.421875" y="7.2" width="266.37609" height="163.567352"/>
  </clipPath>
 </defs>
</svg>
