<?xml version="1.0" encoding="utf-8" standalone="no"?>
<!DOCTYPE svg PUBLIC "-//W3C//DTD SVG 1.1//EN"
  "http://www.w3.org/Graphics/SVG/1.1/DTD/svg11.dtd">
<svg xmlns:xlink="http://www.w3.org/1999/xlink" width="323.997965pt" height="208.323602pt" viewBox="0 0 323.997965 208.323602" xmlns="http://www.w3.org/2000/svg" version="1.1">
 <metadata>
  <rdf:RDF xmlns:dc="http://purl.org/dc/elements/1.1/" xmlns:cc="http://creativecommons.org/ns#" xmlns:rdf="http://www.w3.org/1999/02/22-rdf-syntax-ns#">
   <cc:Work>
    <dc:type rdf:resource="http://purl.org/dc/dcmitype/StillImage"/>
    <dc:date>2025-11-30T08:03:12.165096</dc:date>
    <dc:format>image/svg+xml</dc:format>
    <dc:creator>
     <cc:Agent>
      <dc:title>Matplotlib v3.10.6, https://matplotlib.org/</dc:title>
     </cc:Agent>
    </dc:creator>
   </cc:Work>
  </rdf:RDF>
 </metadata>
 <defs>
  <style type="text/css">*{stroke-linejoin: round; stroke-linecap: butt}</style>
 </defs>
 <g id="figure_1">
  <g id="patch_1">
   <path d="M 0 208.323602 
L 323.997965 208.323602 
L 323.997965 0 
L 0 0 
L 0 208.323602 
z
" style="fill: none"/>
  </g>
  <g id="axes_1">
   <g id="patch_2">
    <path d="M 50.421875 170.767352 
L 316.797965 170.767352 
L 316.797965 7.2 
L 50.421875 7.2 
L 50.421875 170.767352 
z
" style="fill: none"/>
   </g>
   <g id="matplotlib.axis_1">
    <g id="xtick_1">
     <g id="text_1">
      <!-- 50 -->
      <g style="fill: #262626" transform="translate(79.182593 185.365789) scale(0.1 -0.1)">
       <defs>
        <path id="DejaVuSans-35" d="M 691 4666 
L 3169 4666 
L 3169 4134 
L 1269 4134 
L 1269 2991 
Q 1406 3038 1543 3061 
Q 1681 3084 1819 3084 
Q 2600 3084 3056 2656 
Q 3513 2228 3513 1497 
Q 3513 744 3044 326 
Q 2575 -91 1722 -91 
Q 1428 -91 1123 -41 
Q 819 9 494 109 
L 494 744 
Q 775 591 1075 516 
Q 1375 441 1709 441 
Q 2250 441 2565 725 
Q 2881 1009 2881 1497 
Q 2881 1984 2565 2268 
Q 2250 2553 1709 2553 
Q 1456 2553 1204 2497 
Q 953 2441 691 2322 
L 691 4666 
z
" transform="scale(0.015625)"/>
        <path id="DejaVuSans-30" d="M 2034 4250 
Q 1547 4250 1301 3770 
Q 1056 3291 1056 2328 
Q 1056 1369 1301 889 
Q 1547 409 2034 409 
Q 2525 409 2770 889 
Q 3016 1369 3016 2328 
Q 3016 3291 2770 3770 
Q 2525 4250 2034 4250 
z
M 2034 4750 
Q 2819 4750 3233 4129 
Q 3647 3509 3647 2328 
Q 3647 1150 3233 529 
Q 2819 -91 2034 -91 
Q 1250 -91 836 529 
Q 422 1150 422 2328 
Q 422 3509 836 4129 
Q 1250 4750 2034 4750 
z
" transform="scale(0.015625)"/>
       </defs>
       <use xlink:href="#DejaVuSans-35"/>
       <use xlink:href="#DejaVuSans-30" transform="translate(63.623047 0)"/>
      </g>
     </g>
    </g>
    <g id="xtick_2">
     <g id="text_2">
      <!-- 100 -->
      <g style="fill: #262626" transform="translate(126.034418 185.365789) scale(0.1 -0.1)">
       <defs>
        <path id="DejaVuSans-31" d="M 794 531 
L 1825 531 
L 1825 4091 
L 703 3866 
L 703 4441 
L 1819 4666 
L 2450 4666 
L 2450 531 
L 3481 531 
L 3481 0 
L 794 0 
L 794 531 
z
" transform="scale(0.015625)"/>
       </defs>
       <use xlink:href="#DejaVuSans-31"/>
       <use xlink:href="#DejaVuSans-30" transform="translate(63.623047 0)"/>
       <use xlink:href="#DejaVuSans-30" transform="translate(127.246094 0)"/>
      </g>
     </g>
    </g>
    <g id="xtick_3">
     <g id="text_3">
      <!-- 150 -->
      <g style="fill: #262626" transform="translate(176.067493 185.365789) scale(0.1 -0.1)">
       <use xlink:href="#DejaVuSans-31"/>
       <use xlink:href="#DejaVuSans-35" transform="translate(63.623047 0)"/>
       <use xlink:href="#DejaVuSans-30" transform="translate(127.246094 0)"/>
      </g>
     </g>
    </g>
    <g id="xtick_4">
     <g id="text_4">
      <!-- 200 -->
      <g style="fill: #262626" transform="translate(226.100568 185.365789) scale(0.1 -0.1)">
       <defs>
        <path id="DejaVuSans-32" d="M 1228 531 
L 3431 531 
L 3431 0 
L 469 0 
L 469 531 
Q 828 903 1448 1529 
Q 2069 2156 2228 2338 
Q 2531 2678 2651 2914 
Q 2772 3150 2772 3378 
Q 2772 3750 2511 3984 
Q 2250 4219 1831 4219 
Q 1534 4219 1204 4116 
Q 875 4013 500 3803 
L 500 4441 
Q 881 4594 1212 4672 
Q 1544 4750 1819 4750 
Q 2544 4750 2975 4387 
Q 3406 4025 3406 3419 
Q 3406 3131 3298 2873 
Q 3191 2616 2906 2266 
Q 2828 2175 2409 1742 
Q 1991 1309 1228 531 
z
" transform="scale(0.015625)"/>
       </defs>
       <use xlink:href="#DejaVuSans-32"/>
       <use xlink:href="#DejaVuSans-30" transform="translate(63.623047 0)"/>
       <use xlink:href="#DejaVuSans-30" transform="translate(127.246094 0)"/>
      </g>
     </g>
    </g>
    <g id="xtick_5">
     <g id="text_5">
      <!-- 250 -->
      <g style="fill: #262626" transform="translate(276.133642 185.365789) scale(0.1 -0.1)">
       <use xlink:href="#DejaVuSans-32"/>
       <use xlink:href="#DejaVuSans-35" transform="translate(63.623047 0)"/>
       <use xlink:href="#DejaVuSans-30" transform="translate(127.246094 0)"/>
      </g>
     </g>
    </g>
    <g id="text_6">
     <!-- draw -->
     <g style="fill: #262626" transform="translate(171.227107 199.043914) scale(0.1 -0.1)">
      <defs>
       <path id="DejaVuSans-64" d="M 2906 2969 
L 2906 4863 
L 3481 4863 
L 3481 0 
L 2906 0 
L 2906 525 
Q 2725 213 2448 61 
Q 2172 -91 1784 -91 
Q 1150 -91 751 415 
Q 353 922 353 1747 
Q 353 2572 751 3078 
Q 1150 3584 1784 3584 
Q 2172 3584 2448 3432 
Q 2725 3281 2906 2969 
z
M 947 1747 
Q 947 1113 1208 752 
Q 1469 391 1925 391 
Q 2381 391 2643 752 
Q 2906 1113 2906 1747 
Q 2906 2381 2643 2742 
Q 2381 3103 1925 3103 
Q 1469 3103 1208 2742 
Q 947 2381 947 1747 
z
" transform="scale(0.015625)"/>
       <path id="DejaVuSans-72" d="M 2631 2963 
Q 2534 3019 2420 3045 
Q 2306 3072 2169 3072 
Q 1681 3072 1420 2755 
Q 1159 2438 1159 1844 
L 1159 0 
L 581 0 
L 581 3500 
L 1159 3500 
L 1159 2956 
Q 1341 3275 1631 3429 
Q 1922 3584 2338 3584 
Q 2397 3584 2469 3576 
Q 2541 3569 2628 3553 
L 2631 2963 
z
" transform="scale(0.015625)"/>
       <path id="DejaVuSans-61" d="M 2194 1759 
Q 1497 1759 1228 1600 
Q 959 1441 959 1056 
Q 959 750 1161 570 
Q 1363 391 1709 391 
Q 2188 391 2477 730 
Q 2766 1069 2766 1631 
L 2766 1759 
L 2194 1759 
z
M 3341 1997 
L 3341 0 
L 2766 0 
L 2766 531 
Q 2569 213 2275 61 
Q 1981 -91 1556 -91 
Q 1019 -91 701 211 
Q 384 513 384 1019 
Q 384 1609 779 1909 
Q 1175 2209 1959 2209 
L 2766 2209 
L 2766 2266 
Q 2766 2663 2505 2880 
Q 2244 3097 1772 3097 
Q 1472 3097 1187 3025 
Q 903 2953 641 2809 
L 641 3341 
Q 956 3463 1253 3523 
Q 1550 3584 1831 3584 
Q 2591 3584 2966 3190 
Q 3341 2797 3341 1997 
z
" transform="scale(0.015625)"/>
       <path id="DejaVuSans-77" d="M 269 3500 
L 844 3500 
L 1563 769 
L 2278 3500 
L 2956 3500 
L 3675 769 
L 4391 3500 
L 4966 3500 
L 4050 0 
L 3372 0 
L 2619 2869 
L 1863 0 
L 1184 0 
L 269 3500 
z
" transform="scale(0.015625)"/>
      </defs>
      <use xlink:href="#DejaVuSans-64"/>
      <use xlink:href="#DejaVuSans-72" transform="translate(63.476562 0)"/>
      <use xlink:href="#DejaVuSans-61" transform="translate(104.589844 0)"/>
      <use xlink:href="#DejaVuSans-77" transform="translate(165.869141 0)"/>
     </g>
    </g>
   </g>
   <g id="matplotlib.axis_2">
    <g id="ytick_1">
     <g id="text_7">
      <!-- 0.07 -->
      <g style="fill: #262626" transform="translate(21.15625 172.156993) scale(0.1 -0.1)">
       <defs>
        <path id="DejaVuSans-2e" d="M 684 794 
L 1344 794 
L 1344 0 
L 684 0 
L 684 794 
z
" transform="scale(0.015625)"/>
        <path id="DejaVuSans-37" d="M 525 4666 
L 3525 4666 
L 3525 4397 
L 1831 0 
L 1172 0 
L 2766 4134 
L 525 4134 
L 525 4666 
z
" transform="scale(0.015625)"/>
       </defs>
       <use xlink:href="#DejaVuSans-30"/>
       <use xlink:href="#DejaVuSans-2e" transform="translate(63.623047 0)"/>
       <use xlink:href="#DejaVuSans-30" transform="translate(95.410156 0)"/>
       <use xlink:href="#DejaVuSans-37" transform="translate(159.033203 0)"/>
      </g>
     </g>
    </g>
    <g id="ytick_2">
     <g id="text_8">
      <!-- 0.08 -->
      <g style="fill: #262626" transform="translate(21.15625 142.598081) scale(0.1 -0.1)">
       <defs>
        <path id="DejaVuSans-38" d="M 2034 2216 
Q 1584 2216 1326 1975 
Q 1069 1734 1069 1313 
Q 1069 891 1326 650 
Q 1584 409 2034 409 
Q 2484 409 2743 651 
Q 3003 894 3003 1313 
Q 3003 1734 2745 1975 
Q 2488 2216 2034 2216 
z
M 1403 2484 
Q 997 2584 770 2862 
Q 544 3141 544 3541 
Q 544 4100 942 4425 
Q 1341 4750 2034 4750 
Q 2731 4750 3128 4425 
Q 3525 4100 3525 3541 
Q 3525 3141 3298 2862 
Q 3072 2584 2669 2484 
Q 3125 2378 3379 2068 
Q 3634 1759 3634 1313 
Q 3634 634 3220 271 
Q 2806 -91 2034 -91 
Q 1263 -91 848 271 
Q 434 634 434 1313 
Q 434 1759 690 2068 
Q 947 2378 1403 2484 
z
M 1172 3481 
Q 1172 3119 1398 2916 
Q 1625 2713 2034 2713 
Q 2441 2713 2670 2916 
Q 2900 3119 2900 3481 
Q 2900 3844 2670 4047 
Q 2441 4250 2034 4250 
Q 1625 4250 1398 4047 
Q 1172 3844 1172 3481 
z
" transform="scale(0.015625)"/>
       </defs>
       <use xlink:href="#DejaVuSans-30"/>
       <use xlink:href="#DejaVuSans-2e" transform="translate(63.623047 0)"/>
       <use xlink:href="#DejaVuSans-30" transform="translate(95.410156 0)"/>
       <use xlink:href="#DejaVuSans-38" transform="translate(159.033203 0)"/>
      </g>
     </g>
    </g>
    <g id="ytick_3">
     <g id="text_9">
      <!-- 0.09 -->
      <g style="fill: #262626" transform="translate(21.15625 113.03917) scale(0.1 -0.1)">
       <defs>
        <path id="DejaVuSans-39" d="M 703 97 
L 703 672 
Q 941 559 1184 500 
Q 1428 441 1663 441 
Q 2288 441 2617 861 
Q 2947 1281 2994 2138 
Q 2813 1869 2534 1725 
Q 2256 1581 1919 1581 
Q 1219 1581 811 2004 
Q 403 2428 403 3163 
Q 403 3881 828 4315 
Q 1253 4750 1959 4750 
Q 2769 4750 3195 4129 
Q 3622 3509 3622 2328 
Q 3622 1225 3098 567 
Q 2575 -91 1691 -91 
Q 1453 -91 1209 -44 
Q 966 3 703 97 
z
M 1959 2075 
Q 2384 2075 2632 2365 
Q 2881 2656 2881 3163 
Q 2881 3666 2632 3958 
Q 2384 4250 1959 4250 
Q 1534 4250 1286 3958 
Q 1038 3666 1038 3163 
Q 1038 2656 1286 2365 
Q 1534 2075 1959 2075 
z
" transform="scale(0.015625)"/>
       </defs>
       <use xlink:href="#DejaVuSans-30"/>
       <use xlink:href="#DejaVuSans-2e" transform="translate(63.623047 0)"/>
       <use xlink:href="#DejaVuSans-30" transform="translate(95.410156 0)"/>
       <use xlink:href="#DejaVuSans-39" transform="translate(159.033203 0)"/>
      </g>
     </g>
    </g>
    <g id="ytick_4">
     <g id="text_10">
      <!-- 0.10 -->
      <g style="fill: #262626" transform="translate(21.15625 83.480258) scale(0.1 -0.1)">
       <use xlink:href="#DejaVuSans-30"/>
       <use xlink:href="#DejaVuSans-2e" transform="translate(63.623047 0)"/>
       <use xlink:href="#DejaVuSans-31" transform="translate(95.410156 0)"/>
       <use xlink:href="#DejaVuSans-30" transform="translate(159.033203 0)"/>
      </g>
     </g>
    </g>
    <g id="ytick_5">
     <g id="text_11">
      <!-- 0.11 -->
      <g style="fill: #262626" transform="translate(21.15625 53.921347) scale(0.1 -0.1)">
       <use xlink:href="#DejaVuSans-30"/>
       <use xlink:href="#DejaVuSans-2e" transform="translate(63.623047 0)"/>
       <use xlink:href="#DejaVuSans-31" transform="translate(95.410156 0)"/>
       <use xlink:href="#DejaVuSans-31" transform="translate(159.033203 0)"/>
      </g>
     </g>
    </g>
    <g id="ytick_6">
     <g id="text_12">
      <!-- 0.12 -->
      <g style="fill: #262626" transform="translate(21.15625 24.362435) scale(0.1 -0.1)">
       <use xlink:href="#DejaVuSans-30"/>
       <use xlink:href="#DejaVuSans-2e" transform="translate(63.623047 0)"/>
       <use xlink:href="#DejaVuSans-31" transform="translate(95.410156 0)"/>
       <use xlink:href="#DejaVuSans-32" transform="translate(159.033203 0)"/>
      </g>
     </g>
    </g>
    <g id="text_13">
     <!-- train_dtb -->
     <g style="fill: #262626" transform="translate(14.798437 111.42977) rotate(-90) scale(0.1 -0.1)">
      <defs>
       <path id="DejaVuSans-74" d="M 1172 4494 
L 1172 3500 
L 2356 3500 
L 2356 3053 
L 1172 3053 
L 1172 1153 
Q 1172 725 1289 603 
Q 1406 481 1766 481 
L 2356 481 
L 2356 0 
L 1766 0 
Q 1100 0 847 248 
Q 594 497 594 1153 
L 594 3053 
L 172 3053 
L 172 3500 
L 594 3500 
L 594 4494 
L 1172 4494 
z
" transform="scale(0.015625)"/>
       <path id="DejaVuSans-69" d="M 603 3500 
L 1178 3500 
L 1178 0 
L 603 0 
L 603 3500 
z
M 603 4863 
L 1178 4863 
L 1178 4134 
L 603 4134 
L 603 4863 
z
" transform="scale(0.015625)"/>
       <path id="DejaVuSans-6e" d="M 3513 2113 
L 3513 0 
L 2938 0 
L 2938 2094 
Q 2938 2591 2744 2837 
Q 2550 3084 2163 3084 
Q 1697 3084 1428 2787 
Q 1159 2491 1159 1978 
L 1159 0 
L 581 0 
L 581 3500 
L 1159 3500 
L 1159 2956 
Q 1366 3272 1645 3428 
Q 1925 3584 2291 3584 
Q 2894 3584 3203 3211 
Q 3513 2838 3513 2113 
z
" transform="scale(0.015625)"/>
       <path id="DejaVuSans-5f" d="M 3263 -1063 
L 3263 -1509 
L -63 -1509 
L -63 -1063 
L 3263 -1063 
z
" transform="scale(0.015625)"/>
       <path id="DejaVuSans-62" d="M 3116 1747 
Q 3116 2381 2855 2742 
Q 2594 3103 2138 3103 
Q 1681 3103 1420 2742 
Q 1159 2381 1159 1747 
Q 1159 1113 1420 752 
Q 1681 391 2138 391 
Q 2594 391 2855 752 
Q 3116 1113 3116 1747 
z
M 1159 2969 
Q 1341 3281 1617 3432 
Q 1894 3584 2278 3584 
Q 2916 3584 3314 3078 
Q 3713 2572 3713 1747 
Q 3713 922 3314 415 
Q 2916 -91 2278 -91 
Q 1894 -91 1617 61 
Q 1341 213 1159 525 
L 1159 0 
L 581 0 
L 581 4863 
L 1159 4863 
L 1159 2969 
z
" transform="scale(0.015625)"/>
      </defs>
      <use xlink:href="#DejaVuSans-74"/>
      <use xlink:href="#DejaVuSans-72" transform="translate(39.208984 0)"/>
      <use xlink:href="#DejaVuSans-61" transform="translate(80.322266 0)"/>
      <use xlink:href="#DejaVuSans-69" transform="translate(141.601562 0)"/>
      <use xlink:href="#DejaVuSans-6e" transform="translate(169.384766 0)"/>
      <use xlink:href="#DejaVuSans-5f" transform="translate(232.763672 0)"/>
      <use xlink:href="#DejaVuSans-64" transform="translate(282.763672 0)"/>
      <use xlink:href="#DejaVuSans-74" transform="translate(346.240234 0)"/>
      <use xlink:href="#DejaVuSans-62" transform="translate(385.449219 0)"/>
     </g>
    </g>
   </g>
   <g id="line2d_1">
    <path d="M 62.529879 157.18611 
L 63.530541 156.642122 
L 64.531202 157.746534 
L 65.531864 157.205628 
L 66.532525 157.258015 
L 67.533187 155.495602 
L 68.533848 156.612419 
L 69.53451 155.496279 
L 70.535171 155.247341 
L 71.535833 156.979225 
L 72.536494 157.766969 
L 73.537156 155.59839 
L 74.537817 156.583902 
L 75.538478 155.971235 
L 76.53914 156.864082 
L 77.539801 157.359503 
L 78.540463 155.835931 
L 79.541124 156.560001 
L 81.542447 156.921268 
L 82.543109 158.281905 
L 83.54377 156.087534 
L 84.544432 158.209647 
L 86.545755 157.271518 
L 87.546416 155.689838 
L 88.547078 157.468603 
L 89.547739 14.63488 
L 90.548401 156.785248 
L 91.549062 156.857718 
L 92.549724 156.727473 
L 93.550385 154.292276 
L 94.551047 156.804854 
L 95.551708 157.635835 
L 96.55237 156.887094 
L 97.553031 148.318181 
L 98.553693 155.859267 
L 99.554354 155.380075 
L 101.555677 155.724907 
L 102.556339 156.954022 
L 103.557 156.879865 
L 104.557662 157.161917 
L 105.558323 155.973223 
L 107.559646 157.178115 
L 109.560969 156.231017 
L 110.561631 157.052341 
L 111.562292 157.435466 
L 112.562954 152.27085 
L 113.563615 157.061079 
L 114.564277 155.906619 
L 115.564938 157.154275 
L 116.5656 156.078826 
L 117.566261 157.185047 
L 118.566923 156.150462 
L 119.567584 154.866468 
L 120.568246 155.741757 
L 121.568907 157.609534 
L 123.57023 155.903005 
L 124.570892 156.653968 
L 125.571553 157.860639 
L 126.572215 155.826513 
L 127.572876 154.912931 
L 129.574199 157.034987 
L 130.574861 156.558223 
L 131.575522 158.748244 
L 132.576184 156.076514 
L 133.576845 156.845751 
L 134.577507 156.965394 
L 135.578168 157.238794 
L 136.57883 156.827067 
L 137.579491 156.594296 
L 138.580153 157.65701 
L 139.580814 157.259758 
L 140.581476 157.284077 
L 141.582137 156.412493 
L 142.582799 157.156733 
L 143.58346 155.469984 
L 144.584122 155.970764 
L 145.584783 150.978622 
L 146.585445 154.66453 
L 147.586106 156.359987 
L 148.586768 153.900386 
L 149.587429 155.696858 
L 150.588091 154.672318 
L 151.588752 155.420289 
L 152.589414 155.888109 
L 153.590075 155.39094 
L 154.590737 156.575995 
L 155.591398 155.288238 
L 156.592059 155.738941 
L 157.592721 156.755161 
L 158.593382 155.330765 
L 160.594705 154.610392 
L 161.595367 155.008146 
L 162.596028 155.629219 
L 163.59669 154.867624 
L 164.597351 156.295013 
L 166.598674 155.581126 
L 167.599336 155.627504 
L 168.599997 155.129743 
L 169.600659 154.986585 
L 170.60132 154.672494 
L 171.601982 154.965443 
L 172.602643 154.535351 
L 173.603305 154.664558 
L 174.603966 155.531525 
L 175.604628 155.538423 
L 176.605289 156.060878 
L 177.605951 153.942943 
L 178.606612 152.675954 
L 179.607274 154.29882 
L 180.607935 161.519178 
L 181.608597 161.57589 
L 183.60992 162.760678 
L 184.610581 162.469505 
L 185.611243 161.502209 
L 187.612566 163.332472 
L 188.613227 162.291495 
L 189.613889 162.66458 
L 190.61455 162.476555 
L 191.615212 162.126809 
L 192.615873 161.545776 
L 193.616535 163.011513 
L 194.617196 159.92675 
L 195.617858 161.816448 
L 196.618519 163.282873 
L 197.619181 161.493 
L 198.619842 160.617541 
L 199.620504 161.187972 
L 200.621165 162.407047 
L 201.621827 161.273262 
L 202.622488 162.245414 
L 203.62315 159.884135 
L 204.623811 162.774062 
L 205.624473 160.309991 
L 206.625134 160.517382 
L 207.625796 161.567006 
L 208.626457 162.08129 
L 209.627119 162.369586 
L 210.62778 157.433126 
L 211.628442 161.882044 
L 212.629103 159.658269 
L 213.629765 160.262134 
L 214.630426 161.488084 
L 215.631088 161.884029 
L 216.631749 161.592685 
L 217.632411 161.839787 
L 218.633072 162.307665 
L 219.633734 162.558974 
L 220.634395 162.521212 
L 221.635057 161.164515 
L 222.635718 161.592179 
L 223.63638 161.152168 
L 225.637703 161.641428 
L 226.638364 162.31942 
L 227.639026 161.964198 
L 228.639687 162.578486 
L 229.640349 161.470198 
L 230.64101 162.689546 
L 232.642333 162.278611 
L 233.642995 162.535668 
L 234.643656 162.189181 
L 235.644318 162.465477 
L 236.644979 161.085534 
L 237.64564 161.9278 
L 238.646302 161.428946 
L 239.646963 161.416624 
L 240.647625 160.192035 
L 241.648286 160.944603 
L 242.648948 161.282798 
L 243.649609 159.411665 
L 244.650271 162.460863 
L 245.650932 162.998808 
L 246.651594 162.585891 
L 247.652255 162.021057 
L 248.652917 161.09294 
L 249.653578 160.332796 
L 250.65424 159.426831 
L 251.654901 161.148052 
L 252.655563 161.940887 
L 253.656224 157.6834 
L 254.656886 160.755959 
L 255.657547 161.048607 
L 256.658209 160.37541 
L 257.65887 162.47881 
L 258.659532 160.831682 
L 259.660193 162.078801 
L 260.660855 161.529691 
L 261.661516 161.131287 
L 262.662178 161.651589 
L 263.662839 161.556642 
L 264.663501 160.889014 
L 265.664162 162.217489 
L 266.664824 160.776302 
L 267.665485 160.68334 
L 268.666147 160.240131 
L 269.666808 161.305482 
L 270.66747 162.154142 
L 271.668131 160.744966 
L 272.668793 161.090927 
L 273.669454 161.82474 
L 274.670116 162.11422 
L 275.670777 158.340899 
L 276.671439 161.419793 
L 277.6721 161.368562 
L 278.672762 162.731329 
L 279.673423 161.301606 
L 280.674085 161.795248 
L 281.674746 160.546965 
L 282.675408 162.461632 
L 283.676069 161.076356 
L 284.676731 161.973968 
L 285.677392 161.728226 
L 286.678054 162.385847 
L 287.678715 161.060596 
L 288.679377 161.634141 
L 289.680038 161.130373 
L 290.6807 161.788201 
L 292.682023 161.956642 
L 293.682684 161.109674 
L 294.683346 161.60441 
L 295.684007 161.287712 
L 296.684669 161.895668 
L 297.68533 161.512637 
L 298.685992 162.181181 
L 299.686653 160.248929 
L 300.687315 162.112477 
L 301.687976 161.630232 
L 302.688638 160.167518 
L 303.689299 161.650606 
L 304.689961 159.701388 
L 304.689961 159.701388 
" clip-path="url(#p0e5429cab6)" style="fill: none; stroke: #9f4800; stroke-width: 1.5; stroke-linecap: round"/>
   </g>
  </g>
 </g>
 <defs>
  <clipPath id="p0e5429cab6">
   <rect x="50.421875" y="7.2" width="266.37609" height="163.567352"/>
  </clipPath>
 </defs>
</svg>
