<?xml version="1.0" encoding="utf-8" standalone="no"?>
<!DOCTYPE svg PUBLIC "-//W3C//DTD SVG 1.1//EN"
  "http://www.w3.org/Graphics/SVG/1.1/DTD/svg11.dtd">
<svg xmlns:xlink="http://www.w3.org/1999/xlink" width="314.45734pt" height="208.323602pt" viewBox="0 0 314.45734 208.323602" xmlns="http://www.w3.org/2000/svg" version="1.1">
 <metadata>
  <rdf:RDF xmlns:dc="http://purl.org/dc/elements/1.1/" xmlns:cc="http://creativecommons.org/ns#" xmlns:rdf="http://www.w3.org/1999/02/22-rdf-syntax-ns#">
   <cc:Work>
    <dc:type rdf:resource="http://purl.org/dc/dcmitype/StillImage"/>
    <dc:date>2025-11-30T08:03:11.642229</dc:date>
    <dc:format>image/svg+xml</dc:format>
    <dc:creator>
     <cc:Agent>
      <dc:title>Matplotlib v3.10.6, https://matplotlib.org/</dc:title>
     </cc:Agent>
    </dc:creator>
   </cc:Work>
  </rdf:RDF>
 </metadata>
 <defs>
  <style type="text/css">*{stroke-linejoin: round; stroke-linecap: butt}</style>
 </defs>
 <g id="figure_1">
  <g id="patch_1">
   <path d="M 0 208.323602 
L 314.45734 208.323602 
L 314.45734 0 
L 0 0 
L 0 208.323602 
z
" style="fill: none"/>
  </g>
  <g id="axes_1">
   <g id="patch_2">
    <path d="M 40.88125 170.767352 
L 307.25734 170.767352 
L 307.25734 7.2 
L 40.88125 7.2 
L 40.88125 170.767352 
z
" style="fill: none"/>
   </g>
   <g id="matplotlib.axis_1">
    <g id="xtick_1">
     <g id="text_1">
      <!-- 50 -->
      <g style="fill: #262626" transform="translate(69.641968 185.365789) scale(0.1 -0.1)">
       <defs>
        <path id="DejaVuSans-35" d="M 691 4666 
L 3169 4666 
L 3169 4134 
L 1269 4134 
L 1269 2991 
Q 1406 3038 1543 3061 
Q 1681 3084 1819 3084 
Q 2600 3084 3056 2656 
Q 3513 2228 3513 1497 
Q 3513 744 3044 326 
Q 2575 -91 1722 -91 
Q 1428 -91 1123 -41 
Q 819 9 494 109 
L 494 744 
Q 775 591 1075 516 
Q 1375 441 1709 441 
Q 2250 441 2565 725 
Q 2881 1009 2881 1497 
Q 2881 1984 2565 2268 
Q 2250 2553 1709 2553 
Q 1456 2553 1204 2497 
Q 953 2441 691 2322 
L 691 4666 
z
" transform="scale(0.015625)"/>
        <path id="DejaVuSans-30" d="M 2034 4250 
Q 1547 4250 1301 3770 
Q 1056 3291 1056 2328 
Q 1056 1369 1301 889 
Q 1547 409 2034 409 
Q 2525 409 2770 889 
Q 3016 1369 3016 2328 
Q 3016 3291 2770 3770 
Q 2525 4250 2034 4250 
z
M 2034 4750 
Q 2819 4750 3233 4129 
Q 3647 3509 3647 2328 
Q 3647 1150 3233 529 
Q 2819 -91 2034 -91 
Q 1250 -91 836 529 
Q 422 1150 422 2328 
Q 422 3509 836 4129 
Q 1250 4750 2034 4750 
z
" transform="scale(0.015625)"/>
       </defs>
       <use xlink:href="#DejaVuSans-35"/>
       <use xlink:href="#DejaVuSans-30" transform="translate(63.623047 0)"/>
      </g>
     </g>
    </g>
    <g id="xtick_2">
     <g id="text_2">
      <!-- 100 -->
      <g style="fill: #262626" transform="translate(116.493793 185.365789) scale(0.1 -0.1)">
       <defs>
        <path id="DejaVuSans-31" d="M 794 531 
L 1825 531 
L 1825 4091 
L 703 3866 
L 703 4441 
L 1819 4666 
L 2450 4666 
L 2450 531 
L 3481 531 
L 3481 0 
L 794 0 
L 794 531 
z
" transform="scale(0.015625)"/>
       </defs>
       <use xlink:href="#DejaVuSans-31"/>
       <use xlink:href="#DejaVuSans-30" transform="translate(63.623047 0)"/>
       <use xlink:href="#DejaVuSans-30" transform="translate(127.246094 0)"/>
      </g>
     </g>
    </g>
    <g id="xtick_3">
     <g id="text_3">
      <!-- 150 -->
      <g style="fill: #262626" transform="translate(166.526868 185.365789) scale(0.1 -0.1)">
       <use xlink:href="#DejaVuSans-31"/>
       <use xlink:href="#DejaVuSans-35" transform="translate(63.623047 0)"/>
       <use xlink:href="#DejaVuSans-30" transform="translate(127.246094 0)"/>
      </g>
     </g>
    </g>
    <g id="xtick_4">
     <g id="text_4">
      <!-- 200 -->
      <g style="fill: #262626" transform="translate(216.559943 185.365789) scale(0.1 -0.1)">
       <defs>
        <path id="DejaVuSans-32" d="M 1228 531 
L 3431 531 
L 3431 0 
L 469 0 
L 469 531 
Q 828 903 1448 1529 
Q 2069 2156 2228 2338 
Q 2531 2678 2651 2914 
Q 2772 3150 2772 3378 
Q 2772 3750 2511 3984 
Q 2250 4219 1831 4219 
Q 1534 4219 1204 4116 
Q 875 4013 500 3803 
L 500 4441 
Q 881 4594 1212 4672 
Q 1544 4750 1819 4750 
Q 2544 4750 2975 4387 
Q 3406 4025 3406 3419 
Q 3406 3131 3298 2873 
Q 3191 2616 2906 2266 
Q 2828 2175 2409 1742 
Q 1991 1309 1228 531 
z
" transform="scale(0.015625)"/>
       </defs>
       <use xlink:href="#DejaVuSans-32"/>
       <use xlink:href="#DejaVuSans-30" transform="translate(63.623047 0)"/>
       <use xlink:href="#DejaVuSans-30" transform="translate(127.246094 0)"/>
      </g>
     </g>
    </g>
    <g id="xtick_5">
     <g id="text_5">
      <!-- 250 -->
      <g style="fill: #262626" transform="translate(266.593017 185.365789) scale(0.1 -0.1)">
       <use xlink:href="#DejaVuSans-32"/>
       <use xlink:href="#DejaVuSans-35" transform="translate(63.623047 0)"/>
       <use xlink:href="#DejaVuSans-30" transform="translate(127.246094 0)"/>
      </g>
     </g>
    </g>
    <g id="text_6">
     <!-- draw -->
     <g style="fill: #262626" transform="translate(161.686482 199.043914) scale(0.1 -0.1)">
      <defs>
       <path id="DejaVuSans-64" d="M 2906 2969 
L 2906 4863 
L 3481 4863 
L 3481 0 
L 2906 0 
L 2906 525 
Q 2725 213 2448 61 
Q 2172 -91 1784 -91 
Q 1150 -91 751 415 
Q 353 922 353 1747 
Q 353 2572 751 3078 
Q 1150 3584 1784 3584 
Q 2172 3584 2448 3432 
Q 2725 3281 2906 2969 
z
M 947 1747 
Q 947 1113 1208 752 
Q 1469 391 1925 391 
Q 2381 391 2643 752 
Q 2906 1113 2906 1747 
Q 2906 2381 2643 2742 
Q 2381 3103 1925 3103 
Q 1469 3103 1208 2742 
Q 947 2381 947 1747 
z
" transform="scale(0.015625)"/>
       <path id="DejaVuSans-72" d="M 2631 2963 
Q 2534 3019 2420 3045 
Q 2306 3072 2169 3072 
Q 1681 3072 1420 2755 
Q 1159 2438 1159 1844 
L 1159 0 
L 581 0 
L 581 3500 
L 1159 3500 
L 1159 2956 
Q 1341 3275 1631 3429 
Q 1922 3584 2338 3584 
Q 2397 3584 2469 3576 
Q 2541 3569 2628 3553 
L 2631 2963 
z
" transform="scale(0.015625)"/>
       <path id="DejaVuSans-61" d="M 2194 1759 
Q 1497 1759 1228 1600 
Q 959 1441 959 1056 
Q 959 750 1161 570 
Q 1363 391 1709 391 
Q 2188 391 2477 730 
Q 2766 1069 2766 1631 
L 2766 1759 
L 2194 1759 
z
M 3341 1997 
L 3341 0 
L 2766 0 
L 2766 531 
Q 2569 213 2275 61 
Q 1981 -91 1556 -91 
Q 1019 -91 701 211 
Q 384 513 384 1019 
Q 384 1609 779 1909 
Q 1175 2209 1959 2209 
L 2766 2209 
L 2766 2266 
Q 2766 2663 2505 2880 
Q 2244 3097 1772 3097 
Q 1472 3097 1187 3025 
Q 903 2953 641 2809 
L 641 3341 
Q 956 3463 1253 3523 
Q 1550 3584 1831 3584 
Q 2591 3584 2966 3190 
Q 3341 2797 3341 1997 
z
" transform="scale(0.015625)"/>
       <path id="DejaVuSans-77" d="M 269 3500 
L 844 3500 
L 1563 769 
L 2278 3500 
L 2956 3500 
L 3675 769 
L 4391 3500 
L 4966 3500 
L 4050 0 
L 3372 0 
L 2619 2869 
L 1863 0 
L 1184 0 
L 269 3500 
z
" transform="scale(0.015625)"/>
      </defs>
      <use xlink:href="#DejaVuSans-64"/>
      <use xlink:href="#DejaVuSans-72" transform="translate(63.476562 0)"/>
      <use xlink:href="#DejaVuSans-61" transform="translate(104.589844 0)"/>
      <use xlink:href="#DejaVuSans-77" transform="translate(165.869141 0)"/>
     </g>
    </g>
   </g>
   <g id="matplotlib.axis_2">
    <g id="ytick_1">
     <g id="text_7">
      <!-- 12 -->
      <g style="fill: #262626" transform="translate(21.15625 149.793048) scale(0.1 -0.1)">
       <use xlink:href="#DejaVuSans-31"/>
       <use xlink:href="#DejaVuSans-32" transform="translate(63.623047 0)"/>
      </g>
     </g>
    </g>
    <g id="ytick_2">
     <g id="text_8">
      <!-- 14 -->
      <g style="fill: #262626" transform="translate(21.15625 113.479794) scale(0.1 -0.1)">
       <defs>
        <path id="DejaVuSans-34" d="M 2419 4116 
L 825 1625 
L 2419 1625 
L 2419 4116 
z
M 2253 4666 
L 3047 4666 
L 3047 1625 
L 3713 1625 
L 3713 1100 
L 3047 1100 
L 3047 0 
L 2419 0 
L 2419 1100 
L 313 1100 
L 313 1709 
L 2253 4666 
z
" transform="scale(0.015625)"/>
       </defs>
       <use xlink:href="#DejaVuSans-31"/>
       <use xlink:href="#DejaVuSans-34" transform="translate(63.623047 0)"/>
      </g>
     </g>
    </g>
    <g id="ytick_3">
     <g id="text_9">
      <!-- 16 -->
      <g style="fill: #262626" transform="translate(21.15625 77.166539) scale(0.1 -0.1)">
       <defs>
        <path id="DejaVuSans-36" d="M 2113 2584 
Q 1688 2584 1439 2293 
Q 1191 2003 1191 1497 
Q 1191 994 1439 701 
Q 1688 409 2113 409 
Q 2538 409 2786 701 
Q 3034 994 3034 1497 
Q 3034 2003 2786 2293 
Q 2538 2584 2113 2584 
z
M 3366 4563 
L 3366 3988 
Q 3128 4100 2886 4159 
Q 2644 4219 2406 4219 
Q 1781 4219 1451 3797 
Q 1122 3375 1075 2522 
Q 1259 2794 1537 2939 
Q 1816 3084 2150 3084 
Q 2853 3084 3261 2657 
Q 3669 2231 3669 1497 
Q 3669 778 3244 343 
Q 2819 -91 2113 -91 
Q 1303 -91 875 529 
Q 447 1150 447 2328 
Q 447 3434 972 4092 
Q 1497 4750 2381 4750 
Q 2619 4750 2861 4703 
Q 3103 4656 3366 4563 
z
" transform="scale(0.015625)"/>
       </defs>
       <use xlink:href="#DejaVuSans-31"/>
       <use xlink:href="#DejaVuSans-36" transform="translate(63.623047 0)"/>
      </g>
     </g>
    </g>
    <g id="ytick_4">
     <g id="text_10">
      <!-- 18 -->
      <g style="fill: #262626" transform="translate(21.15625 40.853284) scale(0.1 -0.1)">
       <defs>
        <path id="DejaVuSans-38" d="M 2034 2216 
Q 1584 2216 1326 1975 
Q 1069 1734 1069 1313 
Q 1069 891 1326 650 
Q 1584 409 2034 409 
Q 2484 409 2743 651 
Q 3003 894 3003 1313 
Q 3003 1734 2745 1975 
Q 2488 2216 2034 2216 
z
M 1403 2484 
Q 997 2584 770 2862 
Q 544 3141 544 3541 
Q 544 4100 942 4425 
Q 1341 4750 2034 4750 
Q 2731 4750 3128 4425 
Q 3525 4100 3525 3541 
Q 3525 3141 3298 2862 
Q 3072 2584 2669 2484 
Q 3125 2378 3379 2068 
Q 3634 1759 3634 1313 
Q 3634 634 3220 271 
Q 2806 -91 2034 -91 
Q 1263 -91 848 271 
Q 434 634 434 1313 
Q 434 1759 690 2068 
Q 947 2378 1403 2484 
z
M 1172 3481 
Q 1172 3119 1398 2916 
Q 1625 2713 2034 2713 
Q 2441 2713 2670 2916 
Q 2900 3119 2900 3481 
Q 2900 3844 2670 4047 
Q 2441 4250 2034 4250 
Q 1625 4250 1398 4047 
Q 1172 3844 1172 3481 
z
" transform="scale(0.015625)"/>
       </defs>
       <use xlink:href="#DejaVuSans-31"/>
       <use xlink:href="#DejaVuSans-38" transform="translate(63.623047 0)"/>
      </g>
     </g>
    </g>
    <g id="text_11">
     <!-- train_loss -->
     <g style="fill: #262626" transform="translate(14.798438 112.778988) rotate(-90) scale(0.1 -0.1)">
      <defs>
       <path id="DejaVuSans-74" d="M 1172 4494 
L 1172 3500 
L 2356 3500 
L 2356 3053 
L 1172 3053 
L 1172 1153 
Q 1172 725 1289 603 
Q 1406 481 1766 481 
L 2356 481 
L 2356 0 
L 1766 0 
Q 1100 0 847 248 
Q 594 497 594 1153 
L 594 3053 
L 172 3053 
L 172 3500 
L 594 3500 
L 594 4494 
L 1172 4494 
z
" transform="scale(0.015625)"/>
       <path id="DejaVuSans-69" d="M 603 3500 
L 1178 3500 
L 1178 0 
L 603 0 
L 603 3500 
z
M 603 4863 
L 1178 4863 
L 1178 4134 
L 603 4134 
L 603 4863 
z
" transform="scale(0.015625)"/>
       <path id="DejaVuSans-6e" d="M 3513 2113 
L 3513 0 
L 2938 0 
L 2938 2094 
Q 2938 2591 2744 2837 
Q 2550 3084 2163 3084 
Q 1697 3084 1428 2787 
Q 1159 2491 1159 1978 
L 1159 0 
L 581 0 
L 581 3500 
L 1159 3500 
L 1159 2956 
Q 1366 3272 1645 3428 
Q 1925 3584 2291 3584 
Q 2894 3584 3203 3211 
Q 3513 2838 3513 2113 
z
" transform="scale(0.015625)"/>
       <path id="DejaVuSans-5f" d="M 3263 -1063 
L 3263 -1509 
L -63 -1509 
L -63 -1063 
L 3263 -1063 
z
" transform="scale(0.015625)"/>
       <path id="DejaVuSans-6c" d="M 603 4863 
L 1178 4863 
L 1178 0 
L 603 0 
L 603 4863 
z
" transform="scale(0.015625)"/>
       <path id="DejaVuSans-6f" d="M 1959 3097 
Q 1497 3097 1228 2736 
Q 959 2375 959 1747 
Q 959 1119 1226 758 
Q 1494 397 1959 397 
Q 2419 397 2687 759 
Q 2956 1122 2956 1747 
Q 2956 2369 2687 2733 
Q 2419 3097 1959 3097 
z
M 1959 3584 
Q 2709 3584 3137 3096 
Q 3566 2609 3566 1747 
Q 3566 888 3137 398 
Q 2709 -91 1959 -91 
Q 1206 -91 779 398 
Q 353 888 353 1747 
Q 353 2609 779 3096 
Q 1206 3584 1959 3584 
z
" transform="scale(0.015625)"/>
       <path id="DejaVuSans-73" d="M 2834 3397 
L 2834 2853 
Q 2591 2978 2328 3040 
Q 2066 3103 1784 3103 
Q 1356 3103 1142 2972 
Q 928 2841 928 2578 
Q 928 2378 1081 2264 
Q 1234 2150 1697 2047 
L 1894 2003 
Q 2506 1872 2764 1633 
Q 3022 1394 3022 966 
Q 3022 478 2636 193 
Q 2250 -91 1575 -91 
Q 1294 -91 989 -36 
Q 684 19 347 128 
L 347 722 
Q 666 556 975 473 
Q 1284 391 1588 391 
Q 1994 391 2212 530 
Q 2431 669 2431 922 
Q 2431 1156 2273 1281 
Q 2116 1406 1581 1522 
L 1381 1569 
Q 847 1681 609 1914 
Q 372 2147 372 2553 
Q 372 3047 722 3315 
Q 1072 3584 1716 3584 
Q 2034 3584 2315 3537 
Q 2597 3491 2834 3397 
z
" transform="scale(0.015625)"/>
      </defs>
      <use xlink:href="#DejaVuSans-74"/>
      <use xlink:href="#DejaVuSans-72" transform="translate(39.208984 0)"/>
      <use xlink:href="#DejaVuSans-61" transform="translate(80.322266 0)"/>
      <use xlink:href="#DejaVuSans-69" transform="translate(141.601562 0)"/>
      <use xlink:href="#DejaVuSans-6e" transform="translate(169.384766 0)"/>
      <use xlink:href="#DejaVuSans-5f" transform="translate(232.763672 0)"/>
      <use xlink:href="#DejaVuSans-6c" transform="translate(282.763672 0)"/>
      <use xlink:href="#DejaVuSans-6f" transform="translate(310.546875 0)"/>
      <use xlink:href="#DejaVuSans-73" transform="translate(371.728516 0)"/>
      <use xlink:href="#DejaVuSans-73" transform="translate(423.828125 0)"/>
     </g>
    </g>
   </g>
   <g id="line2d_1">
    <path d="M 52.989254 145.380237 
L 53.989916 141.74372 
L 54.990577 149.093756 
L 55.991239 140.789947 
L 56.9919 133.867761 
L 57.992562 132.815134 
L 58.993223 131.071756 
L 59.993885 121.569213 
L 60.994546 146.157322 
L 61.995208 116.007748 
L 62.995869 109.628005 
L 63.996531 116.228417 
L 64.997192 115.43599 
L 65.997853 103.527613 
L 66.998515 137.791784 
L 67.999176 100.283846 
L 68.999838 98.4052 
L 70.000499 111.008692 
L 71.001161 111.444142 
L 72.001822 106.588094 
L 73.002484 128.279025 
L 74.003145 99.175515 
L 75.003807 101.52149 
L 76.004468 106.837091 
L 77.00513 105.289933 
L 78.005791 109.817766 
L 79.006453 113.030433 
L 80.007114 98.735234 
L 81.007776 105.093679 
L 82.008437 101.510841 
L 83.009099 99.525098 
L 84.00976 109.042671 
L 85.010422 98.728273 
L 86.011083 97.837061 
L 87.011745 104.131318 
L 88.012406 92.641975 
L 89.013068 94.14394 
L 90.013729 102.620626 
L 91.014391 89.43639 
L 92.015052 92.294436 
L 93.015714 93.671971 
L 94.016375 77.757771 
L 95.017037 82.152084 
L 96.017698 83.869055 
L 97.01836 83.665477 
L 99.019683 75.232737 
L 100.020344 62.219492 
L 101.021006 68.034213 
L 102.021667 61.0535 
L 103.022329 82.819268 
L 104.02299 65.630197 
L 105.023652 55.052499 
L 106.024313 47.055261 
L 107.024975 50.523766 
L 108.025636 34.984759 
L 109.026298 80.302112 
L 110.026959 48.944072 
L 111.027621 35.712218 
L 112.028282 35.451169 
L 113.028944 38.822914 
L 114.029605 20.162267 
L 115.030267 83.472686 
L 116.030928 41.104406 
L 117.03159 27.740781 
L 118.032251 32.402704 
L 119.032913 35.190398 
L 120.033574 14.63488 
L 121.034236 85.804548 
L 122.034897 33.335629 
L 123.035559 21.43191 
L 124.03622 28.981783 
L 125.036882 32.465283 
L 126.037543 15.152267 
L 127.038205 87.421384 
L 128.038866 31.984466 
L 129.039528 25.145567 
L 130.040189 35.751939 
L 131.040851 39.174142 
L 132.041512 27.551972 
L 133.042174 89.518586 
L 134.042835 39.011688 
L 135.043497 35.770363 
L 136.044158 45.33597 
L 137.04482 45.004101 
L 138.045481 37.853384 
L 139.046143 85.740256 
L 140.046804 40.715846 
L 141.047466 40.294075 
L 142.048127 47.274787 
L 143.048789 43.788171 
L 144.04945 42.156912 
L 145.050112 78.652568 
L 146.050773 40.250786 
L 148.052096 47.738116 
L 149.052757 43.255788 
L 150.053419 47.020388 
L 151.05408 71.883035 
L 152.054742 41.641083 
L 153.055403 47.856173 
L 154.056065 46.729106 
L 155.056726 41.794221 
L 156.057388 48.824491 
L 157.058049 67.04709 
L 158.058711 40.883356 
L 159.059372 49.219977 
L 160.060034 43.448926 
L 161.060695 39.307402 
L 162.061357 48.580134 
L 163.062018 67.121824 
L 164.06268 41.042347 
L 165.063341 51.083057 
L 166.064003 41.976969 
L 167.064664 39.49441 
L 168.065326 49.639636 
L 169.065987 73.315582 
L 170.066649 43.543191 
L 171.06731 54.210134 
L 172.067972 43.26081 
L 173.068633 41.925022 
L 174.069295 52.107927 
L 175.069956 81.226206 
L 176.070618 48.407499 
L 177.071279 59.019689 
L 178.071941 47.658776 
L 179.072602 47.107693 
L 180.073264 57.049635 
L 181.073925 92.855164 
L 182.074587 55.196287 
L 183.075248 65.174002 
L 184.07591 54.381142 
L 185.076571 53.851806 
L 186.077233 63.640333 
L 187.077894 106.771465 
L 188.078556 62.487259 
L 189.079217 71.317961 
L 190.079879 61.401126 
L 191.08054 60.481707 
L 192.081202 69.790213 
L 193.081863 110.13973 
L 194.082525 68.590456 
L 195.083186 76.109179 
L 196.083848 67.558313 
L 197.084509 66.220621 
L 198.085171 74.967741 
L 199.085832 111.050924 
L 200.086494 74.322461 
L 201.087155 80.651747 
L 202.087817 74.412484 
L 203.088478 73.208883 
L 204.08914 81.603685 
L 205.089801 124.488261 
L 206.090463 82.534428 
L 207.091124 87.990683 
L 208.091786 84.632046 
L 209.092447 83.879826 
L 210.093109 91.741482 
L 211.09377 145.228328 
L 212.094432 94.64138 
L 213.095093 99.027935 
L 214.095755 98.30387 
L 215.096416 98.096361 
L 216.097078 104.590508 
L 217.097739 157.614164 
L 218.098401 109.311495 
L 219.099062 112.193263 
L 220.099724 113.86911 
L 221.100385 113.82125 
L 222.101047 118.203407 
L 223.101708 159.320572 
L 224.10237 124.051807 
L 225.103031 125.652556 
L 226.103693 128.544973 
L 227.104354 129.02025 
L 228.105015 130.833391 
L 229.105677 156.871917 
L 230.106338 136.719227 
L 231.107 137.924179 
L 232.107661 140.611961 
L 233.108323 142.011124 
L 234.108984 141.757954 
L 235.109646 157.367868 
L 236.110307 147.20079 
L 237.110969 148.121282 
L 238.11163 150.531965 
L 239.112292 152.101581 
L 240.112953 151.111238 
L 241.113615 161.603103 
L 242.114276 155.069459 
L 243.114938 154.660813 
L 244.115599 156.684788 
L 245.116261 156.991394 
L 246.116922 155.993051 
L 247.117584 163.332472 
L 248.118245 156.005189 
L 249.118907 152.640976 
L 250.119568 154.347472 
L 251.12023 152.06714 
L 252.120891 151.714787 
L 253.121553 154.961999 
L 254.122214 146.897093 
L 255.122876 141.911334 
L 256.123537 143.688442 
L 257.124199 139.897714 
L 258.12486 141.320581 
L 259.125522 137.2478 
L 260.126183 133.854186 
L 261.126845 129.958785 
L 262.127506 131.976578 
L 263.128168 129.083624 
L 264.128829 133.124164 
L 265.129491 120.644998 
L 266.130152 125.601337 
L 267.130814 125.188899 
L 268.131475 126.796973 
L 269.132137 126.952726 
L 270.132798 133.010713 
L 271.13346 115.42709 
L 272.134121 128.406605 
L 273.134783 131.585196 
L 274.135444 132.590708 
L 275.136106 134.935158 
L 276.136767 141.384631 
L 277.137429 124.037175 
L 278.13809 139.566745 
L 279.138752 143.085845 
L 280.139413 141.808342 
L 281.140075 143.278394 
L 282.140736 145.470762 
L 283.141398 131.826107 
L 284.142059 142.49691 
L 285.142721 141.789762 
L 286.143382 138.131497 
L 287.144044 136.980276 
L 288.144705 132.825783 
L 289.145367 125.974036 
L 290.146028 129.771431 
L 292.147351 122.509151 
L 293.148013 121.646284 
L 294.148674 114.770001 
L 295.149336 117.374254 
L 295.149336 117.374254 
" clip-path="url(#pe3d513b61a)" style="fill: none; stroke: #1ac938; stroke-width: 1.5; stroke-linecap: round"/>
   </g>
  </g>
 </g>
 <defs>
  <clipPath id="pe3d513b61a">
   <rect x="40.88125" y="7.2" width="266.37609" height="163.567352"/>
  </clipPath>
 </defs>
</svg>
