<?xml version="1.0" encoding="utf-8" standalone="no"?>
<!DOCTYPE svg PUBLIC "-//W3C//DTD SVG 1.1//EN"
  "http://www.w3.org/Graphics/SVG/1.1/DTD/svg11.dtd">
<svg xmlns:xlink="http://www.w3.org/1999/xlink" width="330.360465pt" height="208.323602pt" viewBox="0 0 330.360465 208.323602" xmlns="http://www.w3.org/2000/svg" version="1.1">
 <metadata>
  <rdf:RDF xmlns:dc="http://purl.org/dc/elements/1.1/" xmlns:cc="http://creativecommons.org/ns#" xmlns:rdf="http://www.w3.org/1999/02/22-rdf-syntax-ns#">
   <cc:Work>
    <dc:type rdf:resource="http://purl.org/dc/dcmitype/StillImage"/>
    <dc:date>2025-11-30T07:53:22.773811</dc:date>
    <dc:format>image/svg+xml</dc:format>
    <dc:creator>
     <cc:Agent>
      <dc:title>Matplotlib v3.10.6, https://matplotlib.org/</dc:title>
     </cc:Agent>
    </dc:creator>
   </cc:Work>
  </rdf:RDF>
 </metadata>
 <defs>
  <style type="text/css">*{stroke-linejoin: round; stroke-linecap: butt}</style>
 </defs>
 <g id="figure_1">
  <g id="patch_1">
   <path d="M 0 208.323602 
L 330.360465 208.323602 
L 330.360465 0 
L 0 0 
L 0 208.323602 
z
" style="fill: none"/>
  </g>
  <g id="axes_1">
   <g id="patch_2">
    <path d="M 56.784375 170.767352 
L 323.160465 170.767352 
L 323.160465 7.2 
L 56.784375 7.2 
L 56.784375 170.767352 
z
" style="fill: none"/>
   </g>
   <g id="matplotlib.axis_1">
    <g id="xtick_1">
     <g id="text_1">
      <!-- 50 -->
      <g style="fill: #262626" transform="translate(85.545093 185.365789) scale(0.1 -0.1)">
       <defs>
        <path id="DejaVuSans-35" d="M 691 4666 
L 3169 4666 
L 3169 4134 
L 1269 4134 
L 1269 2991 
Q 1406 3038 1543 3061 
Q 1681 3084 1819 3084 
Q 2600 3084 3056 2656 
Q 3513 2228 3513 1497 
Q 3513 744 3044 326 
Q 2575 -91 1722 -91 
Q 1428 -91 1123 -41 
Q 819 9 494 109 
L 494 744 
Q 775 591 1075 516 
Q 1375 441 1709 441 
Q 2250 441 2565 725 
Q 2881 1009 2881 1497 
Q 2881 1984 2565 2268 
Q 2250 2553 1709 2553 
Q 1456 2553 1204 2497 
Q 953 2441 691 2322 
L 691 4666 
z
" transform="scale(0.015625)"/>
        <path id="DejaVuSans-30" d="M 2034 4250 
Q 1547 4250 1301 3770 
Q 1056 3291 1056 2328 
Q 1056 1369 1301 889 
Q 1547 409 2034 409 
Q 2525 409 2770 889 
Q 3016 1369 3016 2328 
Q 3016 3291 2770 3770 
Q 2525 4250 2034 4250 
z
M 2034 4750 
Q 2819 4750 3233 4129 
Q 3647 3509 3647 2328 
Q 3647 1150 3233 529 
Q 2819 -91 2034 -91 
Q 1250 -91 836 529 
Q 422 1150 422 2328 
Q 422 3509 836 4129 
Q 1250 4750 2034 4750 
z
" transform="scale(0.015625)"/>
       </defs>
       <use xlink:href="#DejaVuSans-35"/>
       <use xlink:href="#DejaVuSans-30" transform="translate(63.623047 0)"/>
      </g>
     </g>
    </g>
    <g id="xtick_2">
     <g id="text_2">
      <!-- 100 -->
      <g style="fill: #262626" transform="translate(132.396918 185.365789) scale(0.1 -0.1)">
       <defs>
        <path id="DejaVuSans-31" d="M 794 531 
L 1825 531 
L 1825 4091 
L 703 3866 
L 703 4441 
L 1819 4666 
L 2450 4666 
L 2450 531 
L 3481 531 
L 3481 0 
L 794 0 
L 794 531 
z
" transform="scale(0.015625)"/>
       </defs>
       <use xlink:href="#DejaVuSans-31"/>
       <use xlink:href="#DejaVuSans-30" transform="translate(63.623047 0)"/>
       <use xlink:href="#DejaVuSans-30" transform="translate(127.246094 0)"/>
      </g>
     </g>
    </g>
    <g id="xtick_3">
     <g id="text_3">
      <!-- 150 -->
      <g style="fill: #262626" transform="translate(182.429993 185.365789) scale(0.1 -0.1)">
       <use xlink:href="#DejaVuSans-31"/>
       <use xlink:href="#DejaVuSans-35" transform="translate(63.623047 0)"/>
       <use xlink:href="#DejaVuSans-30" transform="translate(127.246094 0)"/>
      </g>
     </g>
    </g>
    <g id="xtick_4">
     <g id="text_4">
      <!-- 200 -->
      <g style="fill: #262626" transform="translate(232.463068 185.365789) scale(0.1 -0.1)">
       <defs>
        <path id="DejaVuSans-32" d="M 1228 531 
L 3431 531 
L 3431 0 
L 469 0 
L 469 531 
Q 828 903 1448 1529 
Q 2069 2156 2228 2338 
Q 2531 2678 2651 2914 
Q 2772 3150 2772 3378 
Q 2772 3750 2511 3984 
Q 2250 4219 1831 4219 
Q 1534 4219 1204 4116 
Q 875 4013 500 3803 
L 500 4441 
Q 881 4594 1212 4672 
Q 1544 4750 1819 4750 
Q 2544 4750 2975 4387 
Q 3406 4025 3406 3419 
Q 3406 3131 3298 2873 
Q 3191 2616 2906 2266 
Q 2828 2175 2409 1742 
Q 1991 1309 1228 531 
z
" transform="scale(0.015625)"/>
       </defs>
       <use xlink:href="#DejaVuSans-32"/>
       <use xlink:href="#DejaVuSans-30" transform="translate(63.623047 0)"/>
       <use xlink:href="#DejaVuSans-30" transform="translate(127.246094 0)"/>
      </g>
     </g>
    </g>
    <g id="xtick_5">
     <g id="text_5">
      <!-- 250 -->
      <g style="fill: #262626" transform="translate(282.496142 185.365789) scale(0.1 -0.1)">
       <use xlink:href="#DejaVuSans-32"/>
       <use xlink:href="#DejaVuSans-35" transform="translate(63.623047 0)"/>
       <use xlink:href="#DejaVuSans-30" transform="translate(127.246094 0)"/>
      </g>
     </g>
    </g>
    <g id="text_6">
     <!-- draw -->
     <g style="fill: #262626" transform="translate(177.589607 199.043914) scale(0.1 -0.1)">
      <defs>
       <path id="DejaVuSans-64" d="M 2906 2969 
L 2906 4863 
L 3481 4863 
L 3481 0 
L 2906 0 
L 2906 525 
Q 2725 213 2448 61 
Q 2172 -91 1784 -91 
Q 1150 -91 751 415 
Q 353 922 353 1747 
Q 353 2572 751 3078 
Q 1150 3584 1784 3584 
Q 2172 3584 2448 3432 
Q 2725 3281 2906 2969 
z
M 947 1747 
Q 947 1113 1208 752 
Q 1469 391 1925 391 
Q 2381 391 2643 752 
Q 2906 1113 2906 1747 
Q 2906 2381 2643 2742 
Q 2381 3103 1925 3103 
Q 1469 3103 1208 2742 
Q 947 2381 947 1747 
z
" transform="scale(0.015625)"/>
       <path id="DejaVuSans-72" d="M 2631 2963 
Q 2534 3019 2420 3045 
Q 2306 3072 2169 3072 
Q 1681 3072 1420 2755 
Q 1159 2438 1159 1844 
L 1159 0 
L 581 0 
L 581 3500 
L 1159 3500 
L 1159 2956 
Q 1341 3275 1631 3429 
Q 1922 3584 2338 3584 
Q 2397 3584 2469 3576 
Q 2541 3569 2628 3553 
L 2631 2963 
z
" transform="scale(0.015625)"/>
       <path id="DejaVuSans-61" d="M 2194 1759 
Q 1497 1759 1228 1600 
Q 959 1441 959 1056 
Q 959 750 1161 570 
Q 1363 391 1709 391 
Q 2188 391 2477 730 
Q 2766 1069 2766 1631 
L 2766 1759 
L 2194 1759 
z
M 3341 1997 
L 3341 0 
L 2766 0 
L 2766 531 
Q 2569 213 2275 61 
Q 1981 -91 1556 -91 
Q 1019 -91 701 211 
Q 384 513 384 1019 
Q 384 1609 779 1909 
Q 1175 2209 1959 2209 
L 2766 2209 
L 2766 2266 
Q 2766 2663 2505 2880 
Q 2244 3097 1772 3097 
Q 1472 3097 1187 3025 
Q 903 2953 641 2809 
L 641 3341 
Q 956 3463 1253 3523 
Q 1550 3584 1831 3584 
Q 2591 3584 2966 3190 
Q 3341 2797 3341 1997 
z
" transform="scale(0.015625)"/>
       <path id="DejaVuSans-77" d="M 269 3500 
L 844 3500 
L 1563 769 
L 2278 3500 
L 2956 3500 
L 3675 769 
L 4391 3500 
L 4966 3500 
L 4050 0 
L 3372 0 
L 2619 2869 
L 1863 0 
L 1184 0 
L 269 3500 
z
" transform="scale(0.015625)"/>
      </defs>
      <use xlink:href="#DejaVuSans-64"/>
      <use xlink:href="#DejaVuSans-72" transform="translate(63.476562 0)"/>
      <use xlink:href="#DejaVuSans-61" transform="translate(104.589844 0)"/>
      <use xlink:href="#DejaVuSans-77" transform="translate(165.869141 0)"/>
     </g>
    </g>
   </g>
   <g id="matplotlib.axis_2">
    <g id="ytick_1">
     <g id="text_7">
      <!-- 0.450 -->
      <g style="fill: #262626" transform="translate(21.15625 166.239655) scale(0.1 -0.1)">
       <defs>
        <path id="DejaVuSans-2e" d="M 684 794 
L 1344 794 
L 1344 0 
L 684 0 
L 684 794 
z
" transform="scale(0.015625)"/>
        <path id="DejaVuSans-34" d="M 2419 4116 
L 825 1625 
L 2419 1625 
L 2419 4116 
z
M 2253 4666 
L 3047 4666 
L 3047 1625 
L 3713 1625 
L 3713 1100 
L 3047 1100 
L 3047 0 
L 2419 0 
L 2419 1100 
L 313 1100 
L 313 1709 
L 2253 4666 
z
" transform="scale(0.015625)"/>
       </defs>
       <use xlink:href="#DejaVuSans-30"/>
       <use xlink:href="#DejaVuSans-2e" transform="translate(63.623047 0)"/>
       <use xlink:href="#DejaVuSans-34" transform="translate(95.410156 0)"/>
       <use xlink:href="#DejaVuSans-35" transform="translate(159.033203 0)"/>
       <use xlink:href="#DejaVuSans-30" transform="translate(222.65625 0)"/>
      </g>
     </g>
    </g>
    <g id="ytick_2">
     <g id="text_8">
      <!-- 0.475 -->
      <g style="fill: #262626" transform="translate(21.15625 143.315704) scale(0.1 -0.1)">
       <defs>
        <path id="DejaVuSans-37" d="M 525 4666 
L 3525 4666 
L 3525 4397 
L 1831 0 
L 1172 0 
L 2766 4134 
L 525 4134 
L 525 4666 
z
" transform="scale(0.015625)"/>
       </defs>
       <use xlink:href="#DejaVuSans-30"/>
       <use xlink:href="#DejaVuSans-2e" transform="translate(63.623047 0)"/>
       <use xlink:href="#DejaVuSans-34" transform="translate(95.410156 0)"/>
       <use xlink:href="#DejaVuSans-37" transform="translate(159.033203 0)"/>
       <use xlink:href="#DejaVuSans-35" transform="translate(222.65625 0)"/>
      </g>
     </g>
    </g>
    <g id="ytick_3">
     <g id="text_9">
      <!-- 0.500 -->
      <g style="fill: #262626" transform="translate(21.15625 120.391752) scale(0.1 -0.1)">
       <use xlink:href="#DejaVuSans-30"/>
       <use xlink:href="#DejaVuSans-2e" transform="translate(63.623047 0)"/>
       <use xlink:href="#DejaVuSans-35" transform="translate(95.410156 0)"/>
       <use xlink:href="#DejaVuSans-30" transform="translate(159.033203 0)"/>
       <use xlink:href="#DejaVuSans-30" transform="translate(222.65625 0)"/>
      </g>
     </g>
    </g>
    <g id="ytick_4">
     <g id="text_10">
      <!-- 0.525 -->
      <g style="fill: #262626" transform="translate(21.15625 97.467801) scale(0.1 -0.1)">
       <use xlink:href="#DejaVuSans-30"/>
       <use xlink:href="#DejaVuSans-2e" transform="translate(63.623047 0)"/>
       <use xlink:href="#DejaVuSans-35" transform="translate(95.410156 0)"/>
       <use xlink:href="#DejaVuSans-32" transform="translate(159.033203 0)"/>
       <use xlink:href="#DejaVuSans-35" transform="translate(222.65625 0)"/>
      </g>
     </g>
    </g>
    <g id="ytick_5">
     <g id="text_11">
      <!-- 0.550 -->
      <g style="fill: #262626" transform="translate(21.15625 74.543849) scale(0.1 -0.1)">
       <use xlink:href="#DejaVuSans-30"/>
       <use xlink:href="#DejaVuSans-2e" transform="translate(63.623047 0)"/>
       <use xlink:href="#DejaVuSans-35" transform="translate(95.410156 0)"/>
       <use xlink:href="#DejaVuSans-35" transform="translate(159.033203 0)"/>
       <use xlink:href="#DejaVuSans-30" transform="translate(222.65625 0)"/>
      </g>
     </g>
    </g>
    <g id="ytick_6">
     <g id="text_12">
      <!-- 0.575 -->
      <g style="fill: #262626" transform="translate(21.15625 51.619897) scale(0.1 -0.1)">
       <use xlink:href="#DejaVuSans-30"/>
       <use xlink:href="#DejaVuSans-2e" transform="translate(63.623047 0)"/>
       <use xlink:href="#DejaVuSans-35" transform="translate(95.410156 0)"/>
       <use xlink:href="#DejaVuSans-37" transform="translate(159.033203 0)"/>
       <use xlink:href="#DejaVuSans-35" transform="translate(222.65625 0)"/>
      </g>
     </g>
    </g>
    <g id="ytick_7">
     <g id="text_13">
      <!-- 0.600 -->
      <g style="fill: #262626" transform="translate(21.15625 28.695946) scale(0.1 -0.1)">
       <defs>
        <path id="DejaVuSans-36" d="M 2113 2584 
Q 1688 2584 1439 2293 
Q 1191 2003 1191 1497 
Q 1191 994 1439 701 
Q 1688 409 2113 409 
Q 2538 409 2786 701 
Q 3034 994 3034 1497 
Q 3034 2003 2786 2293 
Q 2538 2584 2113 2584 
z
M 3366 4563 
L 3366 3988 
Q 3128 4100 2886 4159 
Q 2644 4219 2406 4219 
Q 1781 4219 1451 3797 
Q 1122 3375 1075 2522 
Q 1259 2794 1537 2939 
Q 1816 3084 2150 3084 
Q 2853 3084 3261 2657 
Q 3669 2231 3669 1497 
Q 3669 778 3244 343 
Q 2819 -91 2113 -91 
Q 1303 -91 875 529 
Q 447 1150 447 2328 
Q 447 3434 972 4092 
Q 1497 4750 2381 4750 
Q 2619 4750 2861 4703 
Q 3103 4656 3366 4563 
z
" transform="scale(0.015625)"/>
       </defs>
       <use xlink:href="#DejaVuSans-30"/>
       <use xlink:href="#DejaVuSans-2e" transform="translate(63.623047 0)"/>
       <use xlink:href="#DejaVuSans-36" transform="translate(95.410156 0)"/>
       <use xlink:href="#DejaVuSans-30" transform="translate(159.033203 0)"/>
       <use xlink:href="#DejaVuSans-30" transform="translate(222.65625 0)"/>
      </g>
     </g>
    </g>
    <g id="text_14">
     <!-- train_dt -->
     <g style="fill: #262626" transform="translate(14.798438 108.255551) rotate(-90) scale(0.1 -0.1)">
      <defs>
       <path id="DejaVuSans-74" d="M 1172 4494 
L 1172 3500 
L 2356 3500 
L 2356 3053 
L 1172 3053 
L 1172 1153 
Q 1172 725 1289 603 
Q 1406 481 1766 481 
L 2356 481 
L 2356 0 
L 1766 0 
Q 1100 0 847 248 
Q 594 497 594 1153 
L 594 3053 
L 172 3053 
L 172 3500 
L 594 3500 
L 594 4494 
L 1172 4494 
z
" transform="scale(0.015625)"/>
       <path id="DejaVuSans-69" d="M 603 3500 
L 1178 3500 
L 1178 0 
L 603 0 
L 603 3500 
z
M 603 4863 
L 1178 4863 
L 1178 4134 
L 603 4134 
L 603 4863 
z
" transform="scale(0.015625)"/>
       <path id="DejaVuSans-6e" d="M 3513 2113 
L 3513 0 
L 2938 0 
L 2938 2094 
Q 2938 2591 2744 2837 
Q 2550 3084 2163 3084 
Q 1697 3084 1428 2787 
Q 1159 2491 1159 1978 
L 1159 0 
L 581 0 
L 581 3500 
L 1159 3500 
L 1159 2956 
Q 1366 3272 1645 3428 
Q 1925 3584 2291 3584 
Q 2894 3584 3203 3211 
Q 3513 2838 3513 2113 
z
" transform="scale(0.015625)"/>
       <path id="DejaVuSans-5f" d="M 3263 -1063 
L 3263 -1509 
L -63 -1509 
L -63 -1063 
L 3263 -1063 
z
" transform="scale(0.015625)"/>
      </defs>
      <use xlink:href="#DejaVuSans-74"/>
      <use xlink:href="#DejaVuSans-72" transform="translate(39.208984 0)"/>
      <use xlink:href="#DejaVuSans-61" transform="translate(80.322266 0)"/>
      <use xlink:href="#DejaVuSans-69" transform="translate(141.601562 0)"/>
      <use xlink:href="#DejaVuSans-6e" transform="translate(169.384766 0)"/>
      <use xlink:href="#DejaVuSans-5f" transform="translate(232.763672 0)"/>
      <use xlink:href="#DejaVuSans-64" transform="translate(282.763672 0)"/>
      <use xlink:href="#DejaVuSans-74" transform="translate(346.240234 0)"/>
     </g>
    </g>
   </g>
   <g id="line2d_1">
    <path d="M 68.892379 154.896709 
L 69.893041 38.626696 
L 70.893702 154.363846 
L 71.894364 153.400113 
L 72.895025 154.30856 
L 73.895687 153.998899 
L 74.896348 154.658283 
L 75.89701 156.438394 
L 76.897671 154.095877 
L 77.898333 153.469097 
L 78.898994 153.45562 
L 79.899656 154.146459 
L 80.900317 157.383192 
L 81.900978 154.868744 
L 83.902301 153.330716 
L 84.902963 152.941572 
L 85.903624 153.511135 
L 86.904286 156.387214 
L 87.904947 156.038575 
L 88.905609 152.79292 
L 89.90627 154.431737 
L 90.906932 157.471331 
L 91.907593 153.525587 
L 92.908255 154.365785 
L 93.908916 153.28536 
L 94.909578 19.621426 
L 95.910239 41.349401 
L 96.910901 154.029621 
L 97.911562 34.259323 
L 98.912224 141.297483 
L 99.912885 146.70336 
L 100.913547 153.371193 
L 101.914208 154.285658 
L 102.91487 151.88891 
L 103.915531 154.728885 
L 104.916193 155.562285 
L 105.916854 151.623825 
L 106.917516 154.427493 
L 107.918177 153.575361 
L 108.918839 152.435838 
L 109.9195 156.660476 
L 110.920162 156.796267 
L 111.920823 152.198377 
L 112.921485 154.792954 
L 113.922146 152.756917 
L 114.922808 154.139899 
L 115.923469 154.05877 
L 116.924131 150.434867 
L 117.924792 157.650299 
L 118.925454 157.453859 
L 119.926115 152.743789 
L 121.927438 154.961421 
L 122.9281 20.062991 
L 123.928761 153.432891 
L 124.929423 82.970146 
L 125.930084 157.270691 
L 126.930746 145.587557 
L 127.931407 148.571921 
L 128.932069 154.113515 
L 129.93273 154.723464 
L 130.933392 153.897616 
L 131.934053 153.772272 
L 132.934715 157.661526 
L 133.935376 156.30863 
L 134.936038 156.576325 
L 135.936699 153.766134 
L 136.937361 158.290593 
L 137.938022 153.226772 
L 138.938684 154.334795 
L 139.939345 152.52897 
L 140.940007 155.003585 
L 141.940668 155.662344 
L 142.94133 155.102324 
L 143.941991 153.565923 
L 144.942653 156.772065 
L 145.943314 154.162386 
L 146.943976 158.984378 
L 147.944637 153.731184 
L 148.945299 153.111027 
L 149.94596 18.36402 
L 150.946622 149.104217 
L 151.947283 157.733088 
L 152.947945 39.427249 
L 153.948606 153.066104 
L 154.949268 155.188984 
L 155.949929 154.643085 
L 156.950591 154.750249 
L 157.951252 156.234369 
L 158.951914 151.198444 
L 159.952575 149.89793 
L 160.953237 146.892006 
L 161.953898 137.880523 
L 162.954559 145.117776 
L 163.955221 153.20783 
L 165.956544 153.304318 
L 166.957205 154.772931 
L 167.957867 154.468187 
L 168.958528 157.549774 
L 169.95919 152.402099 
L 170.959851 154.67038 
L 171.960513 154.542672 
L 172.961174 153.735869 
L 173.961836 153.69778 
L 174.962497 154.513753 
L 175.963159 151.318148 
L 176.96382 17.448831 
L 177.964482 42.094438 
L 178.965143 154.334279 
L 179.965805 41.971729 
L 180.966466 153.747195 
L 181.967128 154.860491 
L 182.967789 154.366755 
L 183.968451 154.657444 
L 184.969112 155.926427 
L 185.969774 154.029057 
L 186.970435 157.643406 
L 187.971097 155.510549 
L 188.971758 154.153327 
L 189.97242 154.64754 
L 190.973081 144.712968 
L 191.973743 154.21215 
L 192.974404 155.620607 
L 193.975066 154.716442 
L 194.975727 154.557373 
L 195.976389 153.681612 
L 196.97705 154.57728 
L 197.977712 153.466953 
L 198.978373 152.904857 
L 199.979035 153.759287 
L 200.979696 157.199692 
L 201.980358 153.376222 
L 202.981019 154.998367 
L 203.981681 154.49694 
L 204.982342 18.40684 
L 205.983004 155.363405 
L 206.983665 41.361321 
L 207.984327 153.18229 
L 208.984988 154.810864 
L 210.986311 152.50795 
L 211.986973 151.864865 
L 212.987634 158.150195 
L 213.988296 154.460782 
L 214.988957 155.22676 
L 215.989619 155.44762 
L 216.99028 157.113464 
L 217.990942 157.226812 
L 218.991603 156.619223 
L 219.992265 154.311919 
L 221.993588 154.543858 
L 222.994249 152.168947 
L 224.995572 155.021802 
L 225.996234 147.907158 
L 226.996895 155.897178 
L 227.997557 155.405452 
L 228.998218 153.644084 
L 229.99888 154.180723 
L 230.999541 154.394489 
L 232.000203 18.946603 
L 234.001526 154.858884 
L 235.002187 42.036699 
L 236.002849 153.188188 
L 237.00351 155.506443 
L 238.004172 153.362204 
L 239.004833 152.774377 
L 240.005495 157.211102 
L 241.006156 154.698408 
L 242.006818 156.486252 
L 243.007479 154.520139 
L 244.00814 153.242518 
L 245.008802 153.926854 
L 246.009463 153.100637 
L 247.010125 155.61347 
L 248.010786 152.639192 
L 249.011448 157.126151 
L 250.012109 154.684582 
L 251.012771 152.821889 
L 252.013432 152.168409 
L 253.014094 154.534804 
L 254.014755 150.172776 
L 255.015417 147.949266 
L 256.016078 153.259371 
L 257.01674 153.893169 
L 258.017401 153.068332 
L 259.018063 153.57379 
L 260.018724 17.233977 
L 261.019386 152.307957 
L 262.020047 39.734223 
L 263.020709 153.724866 
L 264.02137 153.345783 
L 265.022032 153.8918 
L 266.022693 155.104707 
L 267.023355 154.257408 
L 268.024016 154.392169 
L 269.024678 153.156627 
L 270.025339 154.920145 
L 274.027985 153.942474 
L 275.028647 152.622024 
L 276.029308 152.369437 
L 277.02997 153.845264 
L 279.031293 154.085499 
L 280.031954 152.58462 
L 281.032616 155.086439 
L 282.033277 153.687104 
L 283.033939 152.81736 
L 284.0346 154.491758 
L 285.035262 154.661961 
L 286.035923 152.166564 
L 287.036585 14.63488 
L 288.037246 154.446403 
L 289.037908 153.981145 
L 290.038569 35.651262 
L 291.039231 142.084013 
L 292.039892 139.579217 
L 293.040554 154.148393 
L 294.041215 150.467472 
L 295.041877 159.419898 
L 296.042538 156.981497 
L 297.0432 160.891627 
L 298.043861 161.303638 
L 299.044523 163.332472 
L 300.045184 159.209593 
L 301.045846 161.591231 
L 302.046507 161.750245 
L 303.047169 159.040851 
L 304.04783 162.302263 
L 305.048492 161.052442 
L 306.049153 159.156475 
L 307.049815 156.755317 
L 309.051138 160.130987 
L 310.051799 159.320956 
L 311.052461 159.422911 
L 311.052461 159.422911 
" clip-path="url(#pea27eb91c3)" style="fill: none; stroke: #e8000b; stroke-width: 1.5; stroke-linecap: round"/>
   </g>
  </g>
 </g>
 <defs>
  <clipPath id="pea27eb91c3">
   <rect x="56.784375" y="7.2" width="266.37609" height="163.567352"/>
  </clipPath>
 </defs>
</svg>
