<?xml version="1.0" encoding="utf-8" standalone="no"?>
<!DOCTYPE svg PUBLIC "-//W3C//DTD SVG 1.1//EN"
  "http://www.w3.org/Graphics/SVG/1.1/DTD/svg11.dtd">
<svg xmlns:xlink="http://www.w3.org/1999/xlink" width="330.360465pt" height="208.323602pt" viewBox="0 0 330.360465 208.323602" xmlns="http://www.w3.org/2000/svg" version="1.1">
 <metadata>
  <rdf:RDF xmlns:dc="http://purl.org/dc/elements/1.1/" xmlns:cc="http://creativecommons.org/ns#" xmlns:rdf="http://www.w3.org/1999/02/22-rdf-syntax-ns#">
   <cc:Work>
    <dc:type rdf:resource="http://purl.org/dc/dcmitype/StillImage"/>
    <dc:date>2025-11-30T07:53:22.954721</dc:date>
    <dc:format>image/svg+xml</dc:format>
    <dc:creator>
     <cc:Agent>
      <dc:title>Matplotlib v3.10.6, https://matplotlib.org/</dc:title>
     </cc:Agent>
    </dc:creator>
   </cc:Work>
  </rdf:RDF>
 </metadata>
 <defs>
  <style type="text/css">*{stroke-linejoin: round; stroke-linecap: butt}</style>
 </defs>
 <g id="figure_1">
  <g id="patch_1">
   <path d="M 0 208.323602 
L 330.360465 208.323602 
L 330.360465 0 
L 0 0 
L 0 208.323602 
z
" style="fill: none"/>
  </g>
  <g id="axes_1">
   <g id="patch_2">
    <path d="M 56.784375 170.767352 
L 323.160465 170.767352 
L 323.160465 7.2 
L 56.784375 7.2 
L 56.784375 170.767352 
z
" style="fill: none"/>
   </g>
   <g id="matplotlib.axis_1">
    <g id="xtick_1">
     <g id="text_1">
      <!-- 50 -->
      <g style="fill: #262626" transform="translate(85.545093 185.365789) scale(0.1 -0.1)">
       <defs>
        <path id="DejaVuSans-35" d="M 691 4666 
L 3169 4666 
L 3169 4134 
L 1269 4134 
L 1269 2991 
Q 1406 3038 1543 3061 
Q 1681 3084 1819 3084 
Q 2600 3084 3056 2656 
Q 3513 2228 3513 1497 
Q 3513 744 3044 326 
Q 2575 -91 1722 -91 
Q 1428 -91 1123 -41 
Q 819 9 494 109 
L 494 744 
Q 775 591 1075 516 
Q 1375 441 1709 441 
Q 2250 441 2565 725 
Q 2881 1009 2881 1497 
Q 2881 1984 2565 2268 
Q 2250 2553 1709 2553 
Q 1456 2553 1204 2497 
Q 953 2441 691 2322 
L 691 4666 
z
" transform="scale(0.015625)"/>
        <path id="DejaVuSans-30" d="M 2034 4250 
Q 1547 4250 1301 3770 
Q 1056 3291 1056 2328 
Q 1056 1369 1301 889 
Q 1547 409 2034 409 
Q 2525 409 2770 889 
Q 3016 1369 3016 2328 
Q 3016 3291 2770 3770 
Q 2525 4250 2034 4250 
z
M 2034 4750 
Q 2819 4750 3233 4129 
Q 3647 3509 3647 2328 
Q 3647 1150 3233 529 
Q 2819 -91 2034 -91 
Q 1250 -91 836 529 
Q 422 1150 422 2328 
Q 422 3509 836 4129 
Q 1250 4750 2034 4750 
z
" transform="scale(0.015625)"/>
       </defs>
       <use xlink:href="#DejaVuSans-35"/>
       <use xlink:href="#DejaVuSans-30" transform="translate(63.623047 0)"/>
      </g>
     </g>
    </g>
    <g id="xtick_2">
     <g id="text_2">
      <!-- 100 -->
      <g style="fill: #262626" transform="translate(132.396918 185.365789) scale(0.1 -0.1)">
       <defs>
        <path id="DejaVuSans-31" d="M 794 531 
L 1825 531 
L 1825 4091 
L 703 3866 
L 703 4441 
L 1819 4666 
L 2450 4666 
L 2450 531 
L 3481 531 
L 3481 0 
L 794 0 
L 794 531 
z
" transform="scale(0.015625)"/>
       </defs>
       <use xlink:href="#DejaVuSans-31"/>
       <use xlink:href="#DejaVuSans-30" transform="translate(63.623047 0)"/>
       <use xlink:href="#DejaVuSans-30" transform="translate(127.246094 0)"/>
      </g>
     </g>
    </g>
    <g id="xtick_3">
     <g id="text_3">
      <!-- 150 -->
      <g style="fill: #262626" transform="translate(182.429993 185.365789) scale(0.1 -0.1)">
       <use xlink:href="#DejaVuSans-31"/>
       <use xlink:href="#DejaVuSans-35" transform="translate(63.623047 0)"/>
       <use xlink:href="#DejaVuSans-30" transform="translate(127.246094 0)"/>
      </g>
     </g>
    </g>
    <g id="xtick_4">
     <g id="text_4">
      <!-- 200 -->
      <g style="fill: #262626" transform="translate(232.463068 185.365789) scale(0.1 -0.1)">
       <defs>
        <path id="DejaVuSans-32" d="M 1228 531 
L 3431 531 
L 3431 0 
L 469 0 
L 469 531 
Q 828 903 1448 1529 
Q 2069 2156 2228 2338 
Q 2531 2678 2651 2914 
Q 2772 3150 2772 3378 
Q 2772 3750 2511 3984 
Q 2250 4219 1831 4219 
Q 1534 4219 1204 4116 
Q 875 4013 500 3803 
L 500 4441 
Q 881 4594 1212 4672 
Q 1544 4750 1819 4750 
Q 2544 4750 2975 4387 
Q 3406 4025 3406 3419 
Q 3406 3131 3298 2873 
Q 3191 2616 2906 2266 
Q 2828 2175 2409 1742 
Q 1991 1309 1228 531 
z
" transform="scale(0.015625)"/>
       </defs>
       <use xlink:href="#DejaVuSans-32"/>
       <use xlink:href="#DejaVuSans-30" transform="translate(63.623047 0)"/>
       <use xlink:href="#DejaVuSans-30" transform="translate(127.246094 0)"/>
      </g>
     </g>
    </g>
    <g id="xtick_5">
     <g id="text_5">
      <!-- 250 -->
      <g style="fill: #262626" transform="translate(282.496142 185.365789) scale(0.1 -0.1)">
       <use xlink:href="#DejaVuSans-32"/>
       <use xlink:href="#DejaVuSans-35" transform="translate(63.623047 0)"/>
       <use xlink:href="#DejaVuSans-30" transform="translate(127.246094 0)"/>
      </g>
     </g>
    </g>
    <g id="text_6">
     <!-- draw -->
     <g style="fill: #262626" transform="translate(177.589607 199.043914) scale(0.1 -0.1)">
      <defs>
       <path id="DejaVuSans-64" d="M 2906 2969 
L 2906 4863 
L 3481 4863 
L 3481 0 
L 2906 0 
L 2906 525 
Q 2725 213 2448 61 
Q 2172 -91 1784 -91 
Q 1150 -91 751 415 
Q 353 922 353 1747 
Q 353 2572 751 3078 
Q 1150 3584 1784 3584 
Q 2172 3584 2448 3432 
Q 2725 3281 2906 2969 
z
M 947 1747 
Q 947 1113 1208 752 
Q 1469 391 1925 391 
Q 2381 391 2643 752 
Q 2906 1113 2906 1747 
Q 2906 2381 2643 2742 
Q 2381 3103 1925 3103 
Q 1469 3103 1208 2742 
Q 947 2381 947 1747 
z
" transform="scale(0.015625)"/>
       <path id="DejaVuSans-72" d="M 2631 2963 
Q 2534 3019 2420 3045 
Q 2306 3072 2169 3072 
Q 1681 3072 1420 2755 
Q 1159 2438 1159 1844 
L 1159 0 
L 581 0 
L 581 3500 
L 1159 3500 
L 1159 2956 
Q 1341 3275 1631 3429 
Q 1922 3584 2338 3584 
Q 2397 3584 2469 3576 
Q 2541 3569 2628 3553 
L 2631 2963 
z
" transform="scale(0.015625)"/>
       <path id="DejaVuSans-61" d="M 2194 1759 
Q 1497 1759 1228 1600 
Q 959 1441 959 1056 
Q 959 750 1161 570 
Q 1363 391 1709 391 
Q 2188 391 2477 730 
Q 2766 1069 2766 1631 
L 2766 1759 
L 2194 1759 
z
M 3341 1997 
L 3341 0 
L 2766 0 
L 2766 531 
Q 2569 213 2275 61 
Q 1981 -91 1556 -91 
Q 1019 -91 701 211 
Q 384 513 384 1019 
Q 384 1609 779 1909 
Q 1175 2209 1959 2209 
L 2766 2209 
L 2766 2266 
Q 2766 2663 2505 2880 
Q 2244 3097 1772 3097 
Q 1472 3097 1187 3025 
Q 903 2953 641 2809 
L 641 3341 
Q 956 3463 1253 3523 
Q 1550 3584 1831 3584 
Q 2591 3584 2966 3190 
Q 3341 2797 3341 1997 
z
" transform="scale(0.015625)"/>
       <path id="DejaVuSans-77" d="M 269 3500 
L 844 3500 
L 1563 769 
L 2278 3500 
L 2956 3500 
L 3675 769 
L 4391 3500 
L 4966 3500 
L 4050 0 
L 3372 0 
L 2619 2869 
L 1863 0 
L 1184 0 
L 269 3500 
z
" transform="scale(0.015625)"/>
      </defs>
      <use xlink:href="#DejaVuSans-64"/>
      <use xlink:href="#DejaVuSans-72" transform="translate(63.476562 0)"/>
      <use xlink:href="#DejaVuSans-61" transform="translate(104.589844 0)"/>
      <use xlink:href="#DejaVuSans-77" transform="translate(165.869141 0)"/>
     </g>
    </g>
   </g>
   <g id="matplotlib.axis_2">
    <g id="ytick_1">
     <g id="text_7">
      <!-- 0.175 -->
      <g style="fill: #262626" transform="translate(21.15625 168.299788) scale(0.1 -0.1)">
       <defs>
        <path id="DejaVuSans-2e" d="M 684 794 
L 1344 794 
L 1344 0 
L 684 0 
L 684 794 
z
" transform="scale(0.015625)"/>
        <path id="DejaVuSans-37" d="M 525 4666 
L 3525 4666 
L 3525 4397 
L 1831 0 
L 1172 0 
L 2766 4134 
L 525 4134 
L 525 4666 
z
" transform="scale(0.015625)"/>
       </defs>
       <use xlink:href="#DejaVuSans-30"/>
       <use xlink:href="#DejaVuSans-2e" transform="translate(63.623047 0)"/>
       <use xlink:href="#DejaVuSans-31" transform="translate(95.410156 0)"/>
       <use xlink:href="#DejaVuSans-37" transform="translate(159.033203 0)"/>
       <use xlink:href="#DejaVuSans-35" transform="translate(222.65625 0)"/>
      </g>
     </g>
    </g>
    <g id="ytick_2">
     <g id="text_8">
      <!-- 0.200 -->
      <g style="fill: #262626" transform="translate(21.15625 144.286469) scale(0.1 -0.1)">
       <use xlink:href="#DejaVuSans-30"/>
       <use xlink:href="#DejaVuSans-2e" transform="translate(63.623047 0)"/>
       <use xlink:href="#DejaVuSans-32" transform="translate(95.410156 0)"/>
       <use xlink:href="#DejaVuSans-30" transform="translate(159.033203 0)"/>
       <use xlink:href="#DejaVuSans-30" transform="translate(222.65625 0)"/>
      </g>
     </g>
    </g>
    <g id="ytick_3">
     <g id="text_9">
      <!-- 0.225 -->
      <g style="fill: #262626" transform="translate(21.15625 120.27315) scale(0.1 -0.1)">
       <use xlink:href="#DejaVuSans-30"/>
       <use xlink:href="#DejaVuSans-2e" transform="translate(63.623047 0)"/>
       <use xlink:href="#DejaVuSans-32" transform="translate(95.410156 0)"/>
       <use xlink:href="#DejaVuSans-32" transform="translate(159.033203 0)"/>
       <use xlink:href="#DejaVuSans-35" transform="translate(222.65625 0)"/>
      </g>
     </g>
    </g>
    <g id="ytick_4">
     <g id="text_10">
      <!-- 0.250 -->
      <g style="fill: #262626" transform="translate(21.15625 96.25983) scale(0.1 -0.1)">
       <use xlink:href="#DejaVuSans-30"/>
       <use xlink:href="#DejaVuSans-2e" transform="translate(63.623047 0)"/>
       <use xlink:href="#DejaVuSans-32" transform="translate(95.410156 0)"/>
       <use xlink:href="#DejaVuSans-35" transform="translate(159.033203 0)"/>
       <use xlink:href="#DejaVuSans-30" transform="translate(222.65625 0)"/>
      </g>
     </g>
    </g>
    <g id="ytick_5">
     <g id="text_11">
      <!-- 0.275 -->
      <g style="fill: #262626" transform="translate(21.15625 72.246511) scale(0.1 -0.1)">
       <use xlink:href="#DejaVuSans-30"/>
       <use xlink:href="#DejaVuSans-2e" transform="translate(63.623047 0)"/>
       <use xlink:href="#DejaVuSans-32" transform="translate(95.410156 0)"/>
       <use xlink:href="#DejaVuSans-37" transform="translate(159.033203 0)"/>
       <use xlink:href="#DejaVuSans-35" transform="translate(222.65625 0)"/>
      </g>
     </g>
    </g>
    <g id="ytick_6">
     <g id="text_12">
      <!-- 0.300 -->
      <g style="fill: #262626" transform="translate(21.15625 48.233192) scale(0.1 -0.1)">
       <defs>
        <path id="DejaVuSans-33" d="M 2597 2516 
Q 3050 2419 3304 2112 
Q 3559 1806 3559 1356 
Q 3559 666 3084 287 
Q 2609 -91 1734 -91 
Q 1441 -91 1130 -33 
Q 819 25 488 141 
L 488 750 
Q 750 597 1062 519 
Q 1375 441 1716 441 
Q 2309 441 2620 675 
Q 2931 909 2931 1356 
Q 2931 1769 2642 2001 
Q 2353 2234 1838 2234 
L 1294 2234 
L 1294 2753 
L 1863 2753 
Q 2328 2753 2575 2939 
Q 2822 3125 2822 3475 
Q 2822 3834 2567 4026 
Q 2313 4219 1838 4219 
Q 1578 4219 1281 4162 
Q 984 4106 628 3988 
L 628 4550 
Q 988 4650 1302 4700 
Q 1616 4750 1894 4750 
Q 2613 4750 3031 4423 
Q 3450 4097 3450 3541 
Q 3450 3153 3228 2886 
Q 3006 2619 2597 2516 
z
" transform="scale(0.015625)"/>
       </defs>
       <use xlink:href="#DejaVuSans-30"/>
       <use xlink:href="#DejaVuSans-2e" transform="translate(63.623047 0)"/>
       <use xlink:href="#DejaVuSans-33" transform="translate(95.410156 0)"/>
       <use xlink:href="#DejaVuSans-30" transform="translate(159.033203 0)"/>
       <use xlink:href="#DejaVuSans-30" transform="translate(222.65625 0)"/>
      </g>
     </g>
    </g>
    <g id="ytick_7">
     <g id="text_13">
      <!-- 0.325 -->
      <g style="fill: #262626" transform="translate(21.15625 24.219873) scale(0.1 -0.1)">
       <use xlink:href="#DejaVuSans-30"/>
       <use xlink:href="#DejaVuSans-2e" transform="translate(63.623047 0)"/>
       <use xlink:href="#DejaVuSans-33" transform="translate(95.410156 0)"/>
       <use xlink:href="#DejaVuSans-32" transform="translate(159.033203 0)"/>
       <use xlink:href="#DejaVuSans-35" transform="translate(222.65625 0)"/>
      </g>
     </g>
    </g>
    <g id="text_14">
     <!-- train_dtf -->
     <g style="fill: #262626" transform="translate(14.798438 110.015707) rotate(-90) scale(0.1 -0.1)">
      <defs>
       <path id="DejaVuSans-74" d="M 1172 4494 
L 1172 3500 
L 2356 3500 
L 2356 3053 
L 1172 3053 
L 1172 1153 
Q 1172 725 1289 603 
Q 1406 481 1766 481 
L 2356 481 
L 2356 0 
L 1766 0 
Q 1100 0 847 248 
Q 594 497 594 1153 
L 594 3053 
L 172 3053 
L 172 3500 
L 594 3500 
L 594 4494 
L 1172 4494 
z
" transform="scale(0.015625)"/>
       <path id="DejaVuSans-69" d="M 603 3500 
L 1178 3500 
L 1178 0 
L 603 0 
L 603 3500 
z
M 603 4863 
L 1178 4863 
L 1178 4134 
L 603 4134 
L 603 4863 
z
" transform="scale(0.015625)"/>
       <path id="DejaVuSans-6e" d="M 3513 2113 
L 3513 0 
L 2938 0 
L 2938 2094 
Q 2938 2591 2744 2837 
Q 2550 3084 2163 3084 
Q 1697 3084 1428 2787 
Q 1159 2491 1159 1978 
L 1159 0 
L 581 0 
L 581 3500 
L 1159 3500 
L 1159 2956 
Q 1366 3272 1645 3428 
Q 1925 3584 2291 3584 
Q 2894 3584 3203 3211 
Q 3513 2838 3513 2113 
z
" transform="scale(0.015625)"/>
       <path id="DejaVuSans-5f" d="M 3263 -1063 
L 3263 -1509 
L -63 -1509 
L -63 -1063 
L 3263 -1063 
z
" transform="scale(0.015625)"/>
       <path id="DejaVuSans-66" d="M 2375 4863 
L 2375 4384 
L 1825 4384 
Q 1516 4384 1395 4259 
Q 1275 4134 1275 3809 
L 1275 3500 
L 2222 3500 
L 2222 3053 
L 1275 3053 
L 1275 0 
L 697 0 
L 697 3053 
L 147 3053 
L 147 3500 
L 697 3500 
L 697 3744 
Q 697 4328 969 4595 
Q 1241 4863 1831 4863 
L 2375 4863 
z
" transform="scale(0.015625)"/>
      </defs>
      <use xlink:href="#DejaVuSans-74"/>
      <use xlink:href="#DejaVuSans-72" transform="translate(39.208984 0)"/>
      <use xlink:href="#DejaVuSans-61" transform="translate(80.322266 0)"/>
      <use xlink:href="#DejaVuSans-69" transform="translate(141.601562 0)"/>
      <use xlink:href="#DejaVuSans-6e" transform="translate(169.384766 0)"/>
      <use xlink:href="#DejaVuSans-5f" transform="translate(232.763672 0)"/>
      <use xlink:href="#DejaVuSans-64" transform="translate(282.763672 0)"/>
      <use xlink:href="#DejaVuSans-74" transform="translate(346.240234 0)"/>
      <use xlink:href="#DejaVuSans-66" transform="translate(385.449219 0)"/>
     </g>
    </g>
   </g>
   <g id="line2d_1">
    <path d="M 68.892379 160.755905 
L 69.893041 162.088982 
L 70.893702 160.818514 
L 71.894364 161.041152 
L 72.895025 162.087751 
L 73.895687 161.924105 
L 74.896348 160.31808 
L 75.89701 161.439078 
L 76.897671 160.650798 
L 77.898333 161.554375 
L 78.898994 161.693577 
L 79.899656 160.973258 
L 80.900317 161.015418 
L 81.900978 161.340429 
L 82.90164 161.288299 
L 83.902301 160.768694 
L 84.902963 162.317096 
L 86.904286 159.838383 
L 87.904947 161.346337 
L 88.905609 161.195846 
L 89.90627 161.41655 
L 90.906932 162.247615 
L 91.907593 160.7466 
L 92.908255 161.315254 
L 93.908916 160.311256 
L 94.909578 17.601558 
L 95.910239 152.67503 
L 96.910901 160.495073 
L 97.911562 162.194888 
L 98.912224 154.797649 
L 99.912885 156.503883 
L 100.913547 157.240436 
L 101.914208 160.264391 
L 102.91487 158.544663 
L 103.915531 161.498434 
L 104.916193 161.025224 
L 105.916854 160.686357 
L 106.917516 161.293746 
L 107.918177 161.128445 
L 108.918839 159.927476 
L 109.9195 161.963639 
L 110.920162 161.149838 
L 111.920823 158.950213 
L 112.921485 161.788415 
L 113.922146 160.66761 
L 115.923469 161.301222 
L 116.924131 159.019125 
L 117.924792 161.379894 
L 118.925454 161.477803 
L 119.926115 159.756834 
L 120.926777 161.265337 
L 121.927438 161.836014 
L 122.9281 18.298252 
L 123.928761 161.064958 
L 124.929423 161.208087 
L 125.930084 159.963593 
L 126.930746 160.280288 
L 127.931407 156.114963 
L 128.932069 161.556848 
L 129.93273 161.623251 
L 130.933392 161.219269 
L 131.934053 161.499504 
L 132.934715 161.32864 
L 133.935376 160.651269 
L 134.936038 162.020705 
L 135.936699 157.486295 
L 136.937361 161.415587 
L 137.938022 159.329817 
L 138.938684 161.488236 
L 139.939345 160.066429 
L 140.940007 162.23041 
L 141.940668 160.770755 
L 142.94133 161.359849 
L 143.941991 160.985712 
L 146.943976 161.716482 
L 148.945299 159.404263 
L 149.94596 19.107287 
L 150.946622 154.960312 
L 151.947283 161.553481 
L 152.947945 147.896647 
L 153.948606 160.689051 
L 154.949268 161.53563 
L 155.949929 161.653536 
L 156.950591 161.935837 
L 157.951252 161.142553 
L 158.951914 161.057377 
L 159.952575 162.114428 
L 160.953237 155.469841 
L 161.953898 154.358216 
L 162.954559 153.653034 
L 163.955221 161.133537 
L 164.955882 161.182933 
L 166.957205 161.931238 
L 167.957867 161.227125 
L 168.958528 161.612925 
L 169.95919 158.328322 
L 170.959851 161.092687 
L 171.960513 161.119129 
L 172.961174 161.785233 
L 173.961836 160.913633 
L 174.962497 161.760827 
L 175.963159 158.674745 
L 176.96382 16.901359 
L 177.964482 160.422244 
L 178.965143 161.024976 
L 179.965805 161.442341 
L 180.966466 160.792407 
L 181.967128 161.387392 
L 182.967789 161.574403 
L 183.968451 160.317599 
L 184.969112 159.979762 
L 185.969774 160.51281 
L 186.970435 161.193182 
L 187.971097 161.479678 
L 188.971758 161.028613 
L 189.97242 161.349081 
L 190.973081 156.331231 
L 191.973743 160.834 
L 192.974404 160.750814 
L 194.975727 161.293044 
L 195.976389 160.947353 
L 196.97705 162.050269 
L 197.977712 160.339299 
L 198.978373 160.401227 
L 199.979035 161.508349 
L 200.979696 161.282228 
L 201.980358 160.189839 
L 202.981019 161.75257 
L 203.981681 161.094947 
L 204.982342 16.396198 
L 205.983004 161.270092 
L 206.983665 161.353402 
L 207.984327 160.702438 
L 208.984988 161.842222 
L 209.98565 160.708789 
L 210.986311 159.374614 
L 211.986973 158.89665 
L 212.987634 161.411122 
L 213.988296 161.151494 
L 214.988957 161.505164 
L 215.989619 162.107077 
L 216.99028 161.173859 
L 217.990942 161.282025 
L 218.991603 160.712438 
L 219.992265 161.607537 
L 220.992926 161.25812 
L 221.993588 161.822686 
L 222.994249 159.298444 
L 223.994911 160.818389 
L 224.995572 161.657211 
L 225.996234 157.521671 
L 226.996895 160.135939 
L 227.997557 161.679538 
L 228.998218 160.838608 
L 229.99888 160.746302 
L 230.999541 161.473973 
L 232.000203 17.490464 
L 233.000864 154.4044 
L 234.001526 160.211164 
L 235.002187 161.915811 
L 236.002849 160.503033 
L 237.00351 160.941425 
L 238.004172 160.701149 
L 239.004833 161.128312 
L 240.005495 161.702211 
L 241.006156 160.975184 
L 242.006818 160.784073 
L 243.007479 161.024446 
L 244.00814 159.656001 
L 245.008802 161.598057 
L 246.009463 160.603953 
L 247.010125 162.301372 
L 248.010786 159.594201 
L 249.011448 160.521403 
L 250.012109 160.187395 
L 251.012771 161.067761 
L 252.013432 159.907669 
L 253.014094 161.701717 
L 254.014755 160.885789 
L 255.015417 155.161546 
L 256.016078 160.669908 
L 257.01674 161.309026 
L 258.017401 161.161663 
L 259.018063 161.599181 
L 260.018724 17.233877 
L 261.019386 160.288052 
L 262.020047 160.818041 
L 263.020709 160.667638 
L 264.02137 161.334143 
L 265.022032 160.680099 
L 266.022693 162.038968 
L 267.023355 160.702685 
L 268.024016 161.491158 
L 269.024678 161.23895 
L 271.026001 161.500714 
L 272.026662 160.802663 
L 273.027324 160.448763 
L 274.027985 160.653894 
L 275.028647 161.525282 
L 276.029308 159.385478 
L 277.02997 161.492316 
L 278.030631 160.475143 
L 279.031293 161.086297 
L 280.031954 160.145138 
L 281.032616 161.567321 
L 282.033277 160.634969 
L 283.033939 160.18016 
L 284.0346 161.108574 
L 285.035262 161.314841 
L 286.035923 161.044464 
L 287.036585 14.63488 
L 288.037246 160.698301 
L 289.037908 160.189493 
L 290.038569 149.304915 
L 291.039231 155.506312 
L 292.039892 154.955035 
L 293.040554 159.818234 
L 294.041215 156.906504 
L 295.041877 162.976049 
L 296.042538 162.98422 
L 297.0432 163.332472 
L 298.043861 163.233611 
L 299.044523 162.815666 
L 300.045184 162.539166 
L 301.045846 162.596898 
L 302.046507 162.044862 
L 303.047169 162.421445 
L 304.04783 162.953166 
L 305.048492 162.334179 
L 306.049153 162.063715 
L 308.050476 162.067391 
L 309.051138 162.533731 
L 310.051799 161.854231 
L 311.052461 162.955263 
L 311.052461 162.955263 
" clip-path="url(#p8d3b097b5a)" style="fill: none; stroke: #8b2be2; stroke-width: 1.5; stroke-linecap: round"/>
   </g>
  </g>
 </g>
 <defs>
  <clipPath id="p8d3b097b5a">
   <rect x="56.784375" y="7.2" width="266.37609" height="163.567352"/>
  </clipPath>
 </defs>
</svg>
